<?xml version="1.0" encoding="utf-8"?>
<!-- Generator: Adobe Illustrator 18.0.0, SVG Export Plug-In . SVG Version: 6.00 Build 0)  -->
<!DOCTYPE svg PUBLIC "-//W3C//DTD SVG 1.1//EN" "http://www.w3.org/Graphics/SVG/1.1/DTD/svg11.dtd">
<svg version="1.1" id="Layer_1" xmlns="http://www.w3.org/2000/svg" xmlns:xlink="http://www.w3.org/1999/xlink" x="0px" y="0px"
	 viewBox="0 90 612 612" enable-background="new 0 90 612 612" xml:space="preserve">
<circle fill="#FFFFFF" cx="303.3" cy="405.6" r="296.4"/>
<path fill="#181616" d="M306,90C137.7,90,0,227.7,0,396c0,135.8,88,250.5,208.5,290.7c15.3,1.9,21-5.7,21-15.3c0-7.6,0-26.8,0-53.5
	c-84.2,19.1-103.3-40.2-103.3-40.2c-13.4-34.4-34.4-44-34.4-44c-28.7-19.1,1.9-19.1,1.9-19.1c30.6,1.9,47.8,30.6,47.8,30.6
	c26.8,45.9,70.8,32.5,89.9,24.9c1.9-19.1,11.5-32.5,19.1-40.2c-68.9-7.7-139.6-34.4-139.6-151.1c0-32.5,11.5-61.2,30.6-82.2
	c-3.8-7.6-13.4-38.2,3.8-80.3c0,0,24.9-7.6,84.2,30.6c24.9-7.7,49.7-9.6,76.5-9.6s51.6,3.8,76.5,9.6c59.3-40.2,84.1-30.6,84.1-30.6
	c17.2,42.1,5.7,72.7,3.8,80.3c19.1,21,30.6,47.8,30.6,82.2c0,116.7-70.8,143.4-139.6,151.1c11.5,9.6,21,28.7,21,55.5
	c0,38.2,0,74.6,0,84.1c0,7.7,5.7,17.2,21,13.4C524,646.5,612,531.8,612,396C612,227.7,474.3,90,306,90z"/>
</svg>
