<?xml version="1.0" encoding="utf-8"?>
<!-- Generator: Adobe Illustrator 18.0.0, SVG Export Plug-In . SVG Version: 6.00 Build 0)  -->
<!DOCTYPE svg PUBLIC "-//W3C//DTD SVG 1.1//EN" "http://www.w3.org/Graphics/SVG/1.1/DTD/svg11.dtd">
<svg version="1.1" id="Layer_1" xmlns="http://www.w3.org/2000/svg" xmlns:xlink="http://www.w3.org/1999/xlink" x="0px" y="0px"
	 viewBox="-306.9 1001.2 612 385.7" enable-background="new -306.9 1001.2 612 385.7" xml:space="preserve">
<g id="background">
</g>
<g id="vennLeft">
	
		<linearGradient id="SVGID_1_" gradientUnits="userSpaceOnUse" x1="486.0311" y1="263.9082" x2="389.5314" y2="87.7395" gradientTransform="matrix(0.8707 0 0 0.8707 -440.3689 998.0228)">
		<stop  offset="0" style="stop-color:#FFFFFF"/>
		<stop  offset="1" style="stop-color:#00AEEF"/>
	</linearGradient>
	<path fill="url(#SVGID_1_)" d="M-13.5,1176.5c-2.1-7.6-3.3-15.7-3.3-24.1c0-23.7,9.4-45.3,24.4-61.1c-16.1-17-39-27.4-64.2-27.4
		c-48.9,0-88.7,39.7-88.7,88.6c0,42.2,29.3,77.3,68.8,86.3C-68.1,1208.6-44.1,1184.5-13.5,1176.5z"/>
</g>
<g id="vennRight">
	
		<linearGradient id="appsPath_1_" gradientUnits="userSpaceOnUse" x1="526.8163" y1="235.3667" x2="656.0492" y2="116.6119" gradientTransform="matrix(0.8707 0 0 0.8707 -440.3689 998.0228)">
		<stop  offset="0" style="stop-color:#FFFFFF"/>
		<stop  offset="1" style="stop-color:#8DC63F"/>
	</linearGradient>
	<path id="appsPath" fill="url(#appsPath_1_)" d="M72.4,1064.4c-25.2,0-48,10.6-64.2,27.8c14.9,15.9,24.4,37.3,24.4,60.9
		c0,8-1.1,15.9-3.1,23.1c31.7,7.4,56.8,31.4,65.6,62.5c38.1-9.8,66.2-44.6,66.2-85.7C160.8,1103.9,121.3,1064.4,72.4,1064.4z"/>
</g>
<g id="vennBottom">
	<g>
		
			<linearGradient id="SVGID_2_" gradientUnits="userSpaceOnUse" x1="596.7437" y1="204.5655" x2="603.7437" y2="392.0655" gradientTransform="matrix(0.8707 0 0 0.8707 -440.3689 998.0228)">
			<stop  offset="0" style="stop-color:#FFFFFF"/>
			<stop  offset="1" style="stop-color:#F7941E"/>
		</linearGradient>
		<path fill="url(#SVGID_2_)" d="M80.1,1210.2c0.4,0.4,0.8,0.9,0.9,1.3C80.7,1210.9,80.5,1210.6,80.1,1210.2z"/>
		
			<linearGradient id="SVGID_3_" gradientUnits="userSpaceOnUse" x1="591.3673" y1="204.7662" x2="598.3672" y2="392.2663" gradientTransform="matrix(0.8707 0 0 0.8707 -440.3689 998.0228)">
			<stop  offset="0" style="stop-color:#FFFFFF"/>
			<stop  offset="1" style="stop-color:#F7941E"/>
		</linearGradient>
		<path fill="url(#SVGID_3_)" d="M75,1203.8c0.4,0.4,0.9,0.9,1.1,1.3C75.7,1204.7,75.3,1204.3,75,1203.8z"/>
		
			<linearGradient id="SVGID_4_" gradientUnits="userSpaceOnUse" x1="594.2089" y1="204.6601" x2="601.2089" y2="392.1603" gradientTransform="matrix(0.8707 0 0 0.8707 -440.3689 998.0228)">
			<stop  offset="0" style="stop-color:#FFFFFF"/>
			<stop  offset="1" style="stop-color:#F7941E"/>
		</linearGradient>
		<path fill="url(#SVGID_4_)" d="M77.3,1206.2c0.8,0.8,1.1,1.3,1.7,2.1C78.3,1207.9,77.7,1207.2,77.3,1206.2z"/>
		
			<linearGradient id="SVGID_5_" gradientUnits="userSpaceOnUse" x1="586.3092" y1="204.955" x2="593.3092" y2="392.455" gradientTransform="matrix(0.8707 0 0 0.8707 -440.3689 998.0228)">
			<stop  offset="0" style="stop-color:#FFFFFF"/>
			<stop  offset="1" style="stop-color:#F7941E"/>
		</linearGradient>
		<path fill="url(#SVGID_5_)" d="M71.7,1200.4c-0.4-0.4-0.9-1.1-1.3-1.3C70.7,1199.4,71.3,1200,71.7,1200.4z"/>
		
			<linearGradient id="SVGID_6_" gradientUnits="userSpaceOnUse" x1="588.8423" y1="204.8604" x2="595.8423" y2="392.3604" gradientTransform="matrix(0.8707 0 0 0.8707 -440.3689 998.0228)">
			<stop  offset="0" style="stop-color:#FFFFFF"/>
			<stop  offset="1" style="stop-color:#F7941E"/>
		</linearGradient>
		<path fill="url(#SVGID_6_)" d="M72.6,1201.4c0.4,0.4,0.9,0.9,1.3,1.3C73.5,1202.2,73.1,1201.9,72.6,1201.4z"/>
		
			<linearGradient id="SVGID_7_" gradientUnits="userSpaceOnUse" x1="576.8664" y1="205.3077" x2="583.866" y2="392.8076" gradientTransform="matrix(0.8707 0 0 0.8707 -440.3689 998.0228)">
			<stop  offset="0" style="stop-color:#FFFFFF"/>
			<stop  offset="1" style="stop-color:#F7941E"/>
		</linearGradient>
		<path fill="url(#SVGID_7_)" d="M61.6,1191.7c0.8,0.4,1.1,0.9,1.7,1.3C62.7,1192.6,62.2,1192.2,61.6,1191.7z"/>
		
			<linearGradient id="SVGID_8_" gradientUnits="userSpaceOnUse" x1="583.0736" y1="205.0758" x2="590.0736" y2="392.5757" gradientTransform="matrix(0.8707 0 0 0.8707 -440.3689 998.0228)">
			<stop  offset="0" style="stop-color:#FFFFFF"/>
			<stop  offset="1" style="stop-color:#F7941E"/>
		</linearGradient>
		<path fill="url(#SVGID_8_)" d="M66.4,1195.7c1.1,1.1,2.3,1.9,3.3,3C68.7,1197.5,67.6,1196.7,66.4,1195.7z"/>
		
			<linearGradient id="SVGID_9_" gradientUnits="userSpaceOnUse" x1="542.0297" y1="206.6081" x2="549.0297" y2="394.108" gradientTransform="matrix(0.8707 0 0 0.8707 -440.3689 998.0228)">
			<stop  offset="0" style="stop-color:#FFFFFF"/>
			<stop  offset="1" style="stop-color:#F7941E"/>
		</linearGradient>
		<path fill="url(#SVGID_9_)" d="M28.8,1176.7c1.7,0.4,3.7,0.9,5.4,1.6C32.7,1177.6,30.7,1177.2,28.8,1176.7c0,0.2,0,0.2,0,0.2
			S28.8,1177,28.8,1176.7z"/>
		
			<linearGradient id="SVGID_10_" gradientUnits="userSpaceOnUse" x1="579.631" y1="205.2044" x2="586.631" y2="392.7044" gradientTransform="matrix(0.8707 0 0 0.8707 -440.3689 998.0228)">
			<stop  offset="0" style="stop-color:#FFFFFF"/>
			<stop  offset="1" style="stop-color:#F7941E"/>
		</linearGradient>
		<path fill="url(#SVGID_10_)" d="M64.1,1193.7c0.4,0.4,1.1,0.9,1.7,1.3C65.1,1194.5,64.7,1194.1,64.1,1193.7z"/>
		
			<linearGradient id="SVGID_11_" gradientUnits="userSpaceOnUse" x1="606.6609" y1="204.1952" x2="613.6608" y2="391.6953" gradientTransform="matrix(0.8707 0 0 0.8707 -440.3689 998.0228)">
			<stop  offset="0" style="stop-color:#FFFFFF"/>
			<stop  offset="1" style="stop-color:#F7941E"/>
		</linearGradient>
		<path fill="url(#SVGID_11_)" d="M89.3,1225.6c0.2,0.4,0.4,1.1,0.8,1.3C89.7,1226.5,89.5,1226,89.3,1225.6z"/>
		
			<linearGradient id="SVGID_12_" gradientUnits="userSpaceOnUse" x1="609.4565" y1="204.0911" x2="616.4565" y2="391.5908" gradientTransform="matrix(0.8707 0 0 0.8707 -440.3689 998.0228)">
			<stop  offset="0" style="stop-color:#FFFFFF"/>
			<stop  offset="1" style="stop-color:#F7941E"/>
		</linearGradient>
		<path fill="url(#SVGID_12_)" d="M92.2,1232.1c0.2,0.4,0.4,0.9,0.4,1.1C92.4,1232.9,92.2,1232.4,92.2,1232.1z"/>
		
			<linearGradient id="SVGID_13_" gradientUnits="userSpaceOnUse" x1="608.1745" y1="204.1388" x2="615.1745" y2="391.6388" gradientTransform="matrix(0.8707 0 0 0.8707 -440.3689 998.0228)">
			<stop  offset="0" style="stop-color:#FFFFFF"/>
			<stop  offset="1" style="stop-color:#F7941E"/>
		</linearGradient>
		<path fill="url(#SVGID_13_)" d="M90.8,1228.7c0.2,0.4,0.4,1.1,0.8,1.3C91.1,1229.8,91.1,1229.4,90.8,1228.7z"/>
		
			<linearGradient id="SVGID_14_" gradientUnits="userSpaceOnUse" x1="610.9171" y1="204.0363" x2="617.9168" y2="391.5363" gradientTransform="matrix(0.8707 0 0 0.8707 -440.3689 998.0228)">
			<stop  offset="0" style="stop-color:#FFFFFF"/>
			<stop  offset="1" style="stop-color:#F7941E"/>
		</linearGradient>
		<path fill="url(#SVGID_14_)" d="M93.6,1236.3c0.2,0.4,0.2,0.9,0.4,1.3C93.9,1237.2,93.7,1236.7,93.6,1236.3z"/>
		
			<linearGradient id="SVGID_15_" gradientUnits="userSpaceOnUse" x1="600.7863" y1="204.4149" x2="607.7863" y2="391.9146" gradientTransform="matrix(0.8707 0 0 0.8707 -440.3689 998.0228)">
			<stop  offset="0" style="stop-color:#FFFFFF"/>
			<stop  offset="1" style="stop-color:#F7941E"/>
		</linearGradient>
		<path fill="url(#SVGID_15_)" d="M83.8,1215.6c0.2,0.4,0.8,0.9,0.9,1.3C84.3,1216.5,84.2,1216,83.8,1215.6z"/>
		
			<linearGradient id="SVGID_16_" gradientUnits="userSpaceOnUse" x1="598.8178" y1="204.4881" x2="605.8176" y2="391.9881" gradientTransform="matrix(0.8707 0 0 0.8707 -440.3689 998.0228)">
			<stop  offset="0" style="stop-color:#FFFFFF"/>
			<stop  offset="1" style="stop-color:#F7941E"/>
		</linearGradient>
		<path fill="url(#SVGID_16_)" d="M82,1212.9c0.4,0.4,0.8,0.9,0.9,1.3C82.7,1213.6,82.4,1213.3,82,1212.9z"/>
		
			<linearGradient id="SVGID_17_" gradientUnits="userSpaceOnUse" x1="605.0335" y1="204.256" x2="612.0335" y2="391.756" gradientTransform="matrix(0.8707 0 0 0.8707 -440.3689 998.0228)">
			<stop  offset="0" style="stop-color:#FFFFFF"/>
			<stop  offset="1" style="stop-color:#F7941E"/>
		</linearGradient>
		<path fill="url(#SVGID_17_)" d="M87.8,1222.7c0.2,0.4,0.4,0.9,0.8,1.3C88.3,1223.5,88,1223.1,87.8,1222.7z"/>
		
			<linearGradient id="SVGID_18_" gradientUnits="userSpaceOnUse" x1="602.692" y1="204.3433" x2="609.6917" y2="391.8434" gradientTransform="matrix(0.8707 0 0 0.8707 -440.3689 998.0228)">
			<stop  offset="0" style="stop-color:#FFFFFF"/>
			<stop  offset="1" style="stop-color:#F7941E"/>
		</linearGradient>
		<path fill="url(#SVGID_18_)" d="M85.6,1218.6c0.2,0.4,0.4,0.8,0.8,1.1C86.1,1219.2,86,1219,85.6,1218.6z"/>
		
			<linearGradient id="SVGID_19_" gradientUnits="userSpaceOnUse" x1="566.0669" y1="205.7108" x2="573.0669" y2="393.2107" gradientTransform="matrix(0.8707 0 0 0.8707 -440.3689 998.0228)">
			<stop  offset="0" style="stop-color:#FFFFFF"/>
			<stop  offset="1" style="stop-color:#F7941E"/>
		</linearGradient>
		<path fill="url(#SVGID_19_)" d="M51.8,1185.4c0.8,0.4,1.3,0.9,2.1,1.1C52.9,1186.3,52.3,1185.7,51.8,1185.4z"/>
		
			<linearGradient id="SVGID_20_" gradientUnits="userSpaceOnUse" x1="522.2527" y1="207.3465" x2="529.2526" y2="394.8465" gradientTransform="matrix(0.8707 0 0 0.8707 -440.3689 998.0228)">
			<stop  offset="0" style="stop-color:#FFFFFF"/>
			<stop  offset="1" style="stop-color:#F7941E"/>
		</linearGradient>
		<path fill="url(#SVGID_20_)" d="M15.4,1205.3c0,0.2-0.2,0.2-0.2,0.4l0,0C15.3,1205.4,15.3,1205.4,15.4,1205.3z"/>
		
			<linearGradient id="SVGID_21_" gradientUnits="userSpaceOnUse" x1="520.4424" y1="242.1032" x2="520.4424" y2="242.1032" gradientTransform="matrix(0.8707 0 0 0.8707 -440.3689 998.0228)">
			<stop  offset="0" style="stop-color:#FFFFFF"/>
			<stop  offset="1" style="stop-color:#F7941E"/>
		</linearGradient>
		<path fill="url(#SVGID_21_)" d="M12.8,1208.8L12.8,1208.8L12.8,1208.8L12.8,1208.8z"/>
		
			<linearGradient id="SVGID_22_" gradientUnits="userSpaceOnUse" x1="520.313" y1="207.4187" x2="527.313" y2="394.9187" gradientTransform="matrix(0.8707 0 0 0.8707 -440.3689 998.0228)">
			<stop  offset="0" style="stop-color:#FFFFFF"/>
			<stop  offset="1" style="stop-color:#F7941E"/>
		</linearGradient>
		<path fill="url(#SVGID_22_)" d="M14.7,1205.9L14.7,1205.9c-0.8,0.9-1.1,1.7-1.9,2.6C13.6,1207.7,14.2,1206.7,14.7,1205.9z"/>
		
			<linearGradient id="SVGID_23_" gradientUnits="userSpaceOnUse" x1="524.3683" y1="207.2677" x2="525.9778" y2="250.3829" gradientTransform="matrix(0.8707 0 0 0.8707 -440.3689 998.0228)">
			<stop  offset="0" style="stop-color:#FFFFFF"/>
			<stop  offset="1" style="stop-color:#F7941E"/>
		</linearGradient>
		<path fill="url(#SVGID_23_)" d="M17.2,1202.8L17.2,1202.8C17,1202.8,17,1202.8,17.2,1202.8L17.2,1202.8z"/>
		
			<linearGradient id="SVGID_24_" gradientUnits="userSpaceOnUse" x1="512.9424" y1="207.694" x2="519.9424" y2="395.194" gradientTransform="matrix(0.8707 0 0 0.8707 -440.3689 998.0228)">
			<stop  offset="0" style="stop-color:#FFFFFF"/>
			<stop  offset="1" style="stop-color:#F7941E"/>
		</linearGradient>
		<path fill="url(#SVGID_24_)" d="M94.5,1239.1c-7.2,1.9-14.7,2.9-22.5,2.9c-25.2,0-48-10.6-64.2-27.8c-16,17.1-38.9,27.8-64.2,27.8
			c-6.8,0-13.4-0.9-19.7-2.1c-1.9,7.4-3.1,15.1-3.1,23.4c0,48.9,39.7,88.6,88.6,88.6s88.6-39.7,88.6-88.6
			C97.7,1254.8,96.5,1246.6,94.5,1239.1z"/>
		
			<linearGradient id="SVGID_25_" gradientUnits="userSpaceOnUse" x1="571.1479" y1="205.5209" x2="578.1479" y2="393.0211" gradientTransform="matrix(0.8707 0 0 0.8707 -440.3689 998.0228)">
			<stop  offset="0" style="stop-color:#FFFFFF"/>
			<stop  offset="1" style="stop-color:#F7941E"/>
		</linearGradient>
		<path fill="url(#SVGID_25_)" d="M54.1,1186.7c2.3,1.3,4.6,2.9,6.6,4.4C58.6,1189.6,56.6,1188.2,54.1,1186.7z"/>
		
			<linearGradient id="SVGID_26_" gradientUnits="userSpaceOnUse" x1="529.665" y1="228.1594" x2="529.665" y2="228.1594" gradientTransform="matrix(0.8707 0 0 0.8707 -440.3689 998.0228)">
			<stop  offset="0" style="stop-color:#FFFFFF"/>
			<stop  offset="1" style="stop-color:#F7941E"/>
		</linearGradient>
		<path fill="url(#SVGID_26_)" d="M20.8,1196.7L20.8,1196.7L20.8,1196.7z"/>
		
			<linearGradient id="SVGID_27_" gradientUnits="userSpaceOnUse" x1="513.2104" y1="207.6841" x2="520.2103" y2="395.1841" gradientTransform="matrix(0.8707 0 0 0.8707 -440.3689 998.0228)">
			<stop  offset="0" style="stop-color:#FFFFFF"/>
			<stop  offset="1" style="stop-color:#F7941E"/>
		</linearGradient>
		<path fill="url(#SVGID_27_)" d="M7.9,1214.3c0,0,0,0-0.2,0.2C7.9,1214.3,7.9,1214.3,7.9,1214.3L7.9,1214.3z"/>
		
			<linearGradient id="SVGID_28_" gradientUnits="userSpaceOnUse" x1="515.282" y1="247.8125" x2="515.282" y2="247.8125" gradientTransform="matrix(0.8707 0 0 0.8707 -440.3689 998.0228)">
			<stop  offset="0" style="stop-color:#FFFFFF"/>
			<stop  offset="1" style="stop-color:#F7941E"/>
		</linearGradient>
		<path fill="url(#SVGID_28_)" d="M8.3,1213.8L8.3,1213.8L8.3,1213.8L8.3,1213.8z"/>
		
			<linearGradient id="SVGID_29_" gradientUnits="userSpaceOnUse" x1="547.1888" y1="206.4156" x2="554.1887" y2="393.9155" gradientTransform="matrix(0.8707 0 0 0.8707 -440.3689 998.0228)">
			<stop  offset="0" style="stop-color:#FFFFFF"/>
			<stop  offset="1" style="stop-color:#F7941E"/>
		</linearGradient>
		<path fill="url(#SVGID_29_)" d="M34.9,1178.3c0.9,0.2,1.6,0.4,2.5,0.9C36.5,1178.7,35.8,1178.6,34.9,1178.3z"/>
		
			<linearGradient id="SVGID_30_" gradientUnits="userSpaceOnUse" x1="555.2404" y1="206.1148" x2="562.2403" y2="393.6149" gradientTransform="matrix(0.8707 0 0 0.8707 -440.3689 998.0228)">
			<stop  offset="0" style="stop-color:#FFFFFF"/>
			<stop  offset="1" style="stop-color:#F7941E"/>
		</linearGradient>
		<path fill="url(#SVGID_30_)" d="M38.1,1179.3c3.5,1.1,7,2.6,10.2,4.4C45,1182,41.5,1180.5,38.1,1179.3z"/>
		
			<linearGradient id="SVGID_31_" gradientUnits="userSpaceOnUse" x1="562.7396" y1="205.8349" x2="569.7396" y2="393.335" gradientTransform="matrix(0.8707 0 0 0.8707 -440.3689 998.0228)">
			<stop  offset="0" style="stop-color:#FFFFFF"/>
			<stop  offset="1" style="stop-color:#F7941E"/>
		</linearGradient>
		<path fill="url(#SVGID_31_)" d="M48.8,1183.8c0.8,0.4,1.3,0.8,2.1,1.1C50.1,1184.7,49.6,1184.3,48.8,1183.8z"/>
		
			<linearGradient id="SVGID_32_" gradientUnits="userSpaceOnUse" x1="529.931" y1="207.0599" x2="536.931" y2="394.5599" gradientTransform="matrix(0.8707 0 0 0.8707 -440.3689 998.0228)">
			<stop  offset="0" style="stop-color:#FFFFFF"/>
			<stop  offset="1" style="stop-color:#F7941E"/>
		</linearGradient>
		<path fill="url(#SVGID_32_)" d="M20.8,1196.7c0.8-1.1,1.1-1.9,1.7-3.1l0,0C21.9,1194.9,21.4,1195.8,20.8,1196.7L20.8,1196.7z"/>
		
			<linearGradient id="SVGID_33_" gradientUnits="userSpaceOnUse" x1="531.7066" y1="206.9935" x2="538.7066" y2="394.4936" gradientTransform="matrix(0.8707 0 0 0.8707 -440.3689 998.0228)">
			<stop  offset="0" style="stop-color:#FFFFFF"/>
			<stop  offset="1" style="stop-color:#F7941E"/>
		</linearGradient>
		<path fill="url(#SVGID_33_)" d="M23.8,1190.7c-0.4,1.1-0.9,1.9-1.3,2.9C22.9,1192.6,23.5,1191.7,23.8,1190.7z"/>
		
			<linearGradient id="SVGID_34_" gradientUnits="userSpaceOnUse" x1="533.7727" y1="206.9166" x2="540.7727" y2="394.4166" gradientTransform="matrix(0.8707 0 0 0.8707 -440.3689 998.0228)">
			<stop  offset="0" style="stop-color:#FFFFFF"/>
			<stop  offset="1" style="stop-color:#F7941E"/>
		</linearGradient>
		<path fill="url(#SVGID_34_)" d="M25.2,1187.6c-0.2,0.8-0.8,1.3-0.9,2.1C24.4,1189,24.8,1188.3,25.2,1187.6z"/>
		
			<linearGradient id="SVGID_35_" gradientUnits="userSpaceOnUse" x1="535.455" y1="206.8536" x2="542.4547" y2="394.3537" gradientTransform="matrix(0.8707 0 0 0.8707 -440.3689 998.0228)">
			<stop  offset="0" style="stop-color:#FFFFFF"/>
			<stop  offset="1" style="stop-color:#F7941E"/>
		</linearGradient>
		<path fill="url(#SVGID_35_)" d="M25.6,1186.7c0.4-0.9,0.9-1.9,1.1-3.1C26.2,1184.7,25.9,1185.7,25.6,1186.7z"/>
	</g>
</g>
<g id="vennLeftRight">
	<g>
		
			<linearGradient id="SVGID_36_" gradientUnits="userSpaceOnUse" x1="524.6086" y1="237.4129" x2="525.1086" y2="113.9128" gradientTransform="matrix(0.8707 0 0 0.8707 -440.3689 998.0228)">
			<stop  offset="0" style="stop-color:#FFFFFF"/>
			<stop  offset="1" style="stop-color:#049486"/>
		</linearGradient>
		<path fill="url(#SVGID_36_)" d="M17.4,1202L17.4,1202c-0.8,0.9-1.3,1.9-1.9,2.9C15.9,1203.9,16.9,1203,17.4,1202z"/>
		
			<linearGradient id="SVGID_37_" gradientUnits="userSpaceOnUse" x1="518.3836" y1="237.3875" x2="518.8836" y2="113.8877" gradientTransform="matrix(0.8707 0 0 0.8707 -440.3689 998.0228)">
			<stop  offset="0" style="stop-color:#FFFFFF"/>
			<stop  offset="1" style="stop-color:#049486"/>
		</linearGradient>
		<path fill="url(#SVGID_37_)" d="M13.2,1208.1c-1.3,1.7-2.9,3.5-4.4,5.1C10.2,1211.5,11.5,1209.8,13.2,1208.1z"/>
		
			<linearGradient id="SVGID_38_" gradientUnits="userSpaceOnUse" x1="504.787" y1="237.3326" x2="505.287" y2="113.8326" gradientTransform="matrix(0.8707 0 0 0.8707 -440.3689 998.0228)">
			<stop  offset="0" style="stop-color:#FFFFFF"/>
			<stop  offset="1" style="stop-color:#049486"/>
		</linearGradient>
		<path fill="url(#SVGID_38_)" d="M1.1,1205.4c0-0.2,0-0.2-0.2-0.2c-1.3-1.7-2.6-3.5-3.7-5.4C-1.5,1201.7-0.3,1203.6,1.1,1205.4z"/>
		
			<linearGradient id="SVGID_39_" gradientUnits="userSpaceOnUse" x1="508.2654" y1="237.3466" x2="508.7654" y2="113.8466" gradientTransform="matrix(0.8707 0 0 0.8707 -440.3689 998.0228)">
			<stop  offset="0" style="stop-color:#FFFFFF"/>
			<stop  offset="1" style="stop-color:#049486"/>
		</linearGradient>
		<path fill="url(#SVGID_39_)" d="M3.1,1208.1L3.1,1208.1c-0.8-0.9-1.3-1.7-1.9-2.6C1.9,1206.4,2.4,1207.3,3.1,1208.1z"/>
		
			<linearGradient id="SVGID_40_" gradientUnits="userSpaceOnUse" x1="514.218" y1="237.3707" x2="514.718" y2="113.8705" gradientTransform="matrix(0.8707 0 0 0.8707 -440.3689 998.0228)">
			<stop  offset="0" style="stop-color:#FFFFFF"/>
			<stop  offset="1" style="stop-color:#049486"/>
		</linearGradient>
		<path fill="url(#SVGID_40_)" d="M-12.8,1176.6c0.4-0.2,0.9-0.2,1.1-0.2c0.8-0.2,1.3-0.4,2.1-0.4c0.4-0.2,0.9-0.2,1.3-0.4
			c0.8-0.2,1.3-0.2,1.9-0.4c0.4,0,0.9-0.2,1.1-0.2c1.1-0.2,2.1-0.4,3.1-0.4c0.2,0,0.4-0.2,0.8-0.2c0.9-0.2,1.7-0.2,2.6-0.2
			c0.4,0,0.9,0,1.1,0c0.9-0.2,1.6-0.2,2.5-0.2c0.4,0,0.8,0,1.1,0c1.1,0,2.3,0,3.5,0c1.1,0,2.3,0,3.5,0c0.2,0,0.8,0,0.9,0
			c1.1,0,2.1,0,3.1,0.2H17c1.1,0.2,2.1,0.2,3.1,0.4c0.4,0,0.8,0.2,0.9,0.2c0.9,0.2,1.7,0.2,2.9,0.4c0.2,0,0.4,0.2,0.8,0.2
			c0.9,0.2,1.7,0.4,2.6,0.4c0.4,0,0.8,0.2,1.1,0.2c0.2,0.2,0.4,0.2,0.8,0.2c-0.8,2.5-1.3,4.6-2.1,7l0,0c-1.1,3.3-2.6,6.6-4.4,9.7
			c0,0,0,0,0,0.2c6.1-12,9.6-25.8,9.6-40.1c0-23.7-9.3-45.1-24.4-60.9c-15,15.9-24.5,37.3-24.5,61C-16.3,1161.1-15,1169-12.8,1176.6
			C-12.9,1176.8-12.8,1176.8-12.8,1176.6z"/>
		
			<linearGradient id="SVGID_41_" gradientUnits="userSpaceOnUse" x1="527.8266" y1="237.4259" x2="528.3266" y2="113.9259" gradientTransform="matrix(0.8707 0 0 0.8707 -440.3689 998.0228)">
			<stop  offset="0" style="stop-color:#FFFFFF"/>
			<stop  offset="1" style="stop-color:#049486"/>
		</linearGradient>
		<path fill="url(#SVGID_41_)" d="M21.1,1195.9c-1.1,2.1-2.5,4-3.7,6.1C18.6,1200.1,19.7,1198.2,21.1,1195.9z"/>
		
			<linearGradient id="SVGID_42_" gradientUnits="userSpaceOnUse" x1="530.825" y1="237.438" x2="531.3248" y2="113.938" gradientTransform="matrix(0.8707 0 0 0.8707 -440.3689 998.0228)">
			<stop  offset="0" style="stop-color:#FFFFFF"/>
			<stop  offset="1" style="stop-color:#049486"/>
		</linearGradient>
		<path fill="url(#SVGID_42_)" d="M22.7,1192.9c-0.4,1.1-1.1,2.1-1.7,3.1C21.7,1195.1,22.3,1194.1,22.7,1192.9z"/>
		
			<linearGradient id="SVGID_43_" gradientUnits="userSpaceOnUse" x1="521.988" y1="237.4022" x2="522.488" y2="113.9022" gradientTransform="matrix(0.8707 0 0 0.8707 -440.3689 998.0228)">
			<stop  offset="0" style="stop-color:#FFFFFF"/>
			<stop  offset="1" style="stop-color:#049486"/>
		</linearGradient>
		<path fill="url(#SVGID_43_)" d="M13.2,1207.9c0.8-0.9,1.3-1.7,1.9-2.6C14.6,1206,13.9,1206.9,13.2,1207.9L13.2,1207.9z"/>
		
			<linearGradient id="SVGID_44_" gradientUnits="userSpaceOnUse" x1="501.197" y1="237.3181" x2="501.697" y2="113.818" gradientTransform="matrix(0.8707 0 0 0.8707 -440.3689 998.0228)">
			<stop  offset="0" style="stop-color:#FFFFFF"/>
			<stop  offset="1" style="stop-color:#049486"/>
		</linearGradient>
		<path fill="url(#SVGID_44_)" d="M-3,1199.4c-0.4-0.9-1.1-1.7-1.7-2.6c0-0.2,0-0.2-0.2-0.4C-4.2,1197.5-3.6,1198.4-3,1199.4z"/>
		
			<linearGradient id="SVGID_45_" gradientUnits="userSpaceOnUse" x1="491.8922" y1="237.2805" x2="492.3922" y2="113.7805" gradientTransform="matrix(0.8707 0 0 0.8707 -440.3689 998.0228)">
			<stop  offset="0" style="stop-color:#FFFFFF"/>
			<stop  offset="1" style="stop-color:#049486"/>
		</linearGradient>
		<path fill="url(#SVGID_45_)" d="M-10.9,1183.6L-10.9,1183.6c-0.9-2.3-1.6-4.6-2.1-6.8C-12.2,1179.1-11.6,1181.3-10.9,1183.6z"/>
		
			<linearGradient id="SVGID_46_" gradientUnits="userSpaceOnUse" x1="512.7849" y1="237.365" x2="513.2849" y2="113.865" gradientTransform="matrix(0.8707 0 0 0.8707 -440.3689 998.0228)">
			<stop  offset="0" style="stop-color:#FFFFFF"/>
			<stop  offset="1" style="stop-color:#049486"/>
		</linearGradient>
		<path fill="url(#SVGID_46_)" d="M8,1213.6L8,1213.6c-0.2-0.2-0.2-0.2-0.2-0.4c-0.8-0.8-1.3-1.6-1.9-2.3c0-0.2-0.2-0.2-0.2-0.2
			c-0.8-0.9-1.3-1.6-1.9-2.5C4.8,1210.2,6.5,1212,8,1213.6c0-0.2,0.2-0.2,0.4-0.4C8.3,1213.5,8,1213.6,8,1213.6z"/>
		
			<linearGradient id="SVGID_47_" gradientUnits="userSpaceOnUse" x1="494.1114" y1="237.2894" x2="494.6114" y2="113.7894" gradientTransform="matrix(0.8707 0 0 0.8707 -440.3689 998.0228)">
			<stop  offset="0" style="stop-color:#FFFFFF"/>
			<stop  offset="1" style="stop-color:#049486"/>
		</linearGradient>
		<path fill="url(#SVGID_47_)" d="M-9.5,1186.7L-9.5,1186.7c-0.4-1.1-0.9-2.1-1.1-3.1C-10.2,1184.6-10.1,1185.7-9.5,1186.7z"/>
		
			<linearGradient id="SVGID_48_" gradientUnits="userSpaceOnUse" x1="499.3716" y1="237.3104" x2="499.8716" y2="113.8106" gradientTransform="matrix(0.8707 0 0 0.8707 -440.3689 998.0228)">
			<stop  offset="0" style="stop-color:#FFFFFF"/>
			<stop  offset="1" style="stop-color:#049486"/>
		</linearGradient>
		<path fill="url(#SVGID_48_)" d="M-4.7,1196.4c-0.4-1.1-1.1-1.9-1.6-3C-5.9,1194.4-5.3,1195.1-4.7,1196.4z"/>
		
			<linearGradient id="SVGID_49_" gradientUnits="userSpaceOnUse" x1="495.664" y1="237.2956" x2="496.164" y2="113.7956" gradientTransform="matrix(0.8707 0 0 0.8707 -440.3689 998.0228)">
			<stop  offset="0" style="stop-color:#FFFFFF"/>
			<stop  offset="1" style="stop-color:#049486"/>
		</linearGradient>
		<path fill="url(#SVGID_49_)" d="M-8.1,1190.1c-0.4-1.1-0.9-1.9-1.3-3.1C-8.8,1188.2-8.5,1189.2-8.1,1190.1z"/>
		
			<linearGradient id="SVGID_50_" gradientUnits="userSpaceOnUse" x1="497.3809" y1="237.3026" x2="497.8809" y2="113.8026" gradientTransform="matrix(0.8707 0 0 0.8707 -440.3689 998.0228)">
			<stop  offset="0" style="stop-color:#FFFFFF"/>
			<stop  offset="1" style="stop-color:#049486"/>
		</linearGradient>
		<path fill="url(#SVGID_50_)" d="M-8.1,1190.3c0.4,1.1,0.9,2.1,1.6,3.1l0,0C-6.9,1192.3-7.6,1191.3-8.1,1190.3
			C-8,1190.3-8,1190.3-8.1,1190.3z"/>
	</g>
</g>
<g id="vennCore">
	
		<radialGradient id="SVGID_51_" cx="514.63" cy="222.117" r="23.5683" gradientTransform="matrix(0.8707 0 0 0.8707 -440.3689 998.0228)" gradientUnits="userSpaceOnUse">
		<stop  offset="0" style="stop-color:#5C99D2"/>
		<stop  offset="1" style="stop-color:#2D2D85"/>
	</radialGradient>
	<path fill="url(#SVGID_51_)" d="M28,1176.5c-0.4-0.2-0.8-0.2-1.1-0.4c-0.9-0.2-1.7-0.4-2.6-0.4c-0.2,0-0.4,0-0.8,0
		c-0.9-0.2-1.7-0.4-2.9-0.4c-0.4-0.2-0.8-0.2-0.9-0.2c-1.1-0.2-2.1-0.2-3.1-0.4h-0.2c-1.1-0.2-2.1-0.2-3.1-0.2c-0.2,0-0.8,0-0.9,0
		c-1.1,0-2.3,0-3.5,0c-1.1,0-2.3,0-3.5,0c-0.4,0-0.8,0-1.1,0.2c-0.9,0-1.6,0.2-2.5,0.2c-0.4,0-0.9,0-1.1,0c-0.9,0.2-1.7,0.2-2.6,0.4
		c-0.2,0-0.4,0-0.8,0c-1.1,0.2-2.1,0.2-3.1,0.4c-0.4,0-0.9,0.2-1.1,0.2c-0.8,0.2-1.3,0.2-1.9,0.4c-0.4,0.2-0.9,0.2-1.3,0.2
		c-0.8,0.2-1.3,0.4-2.1,0.4c-0.4,0.2-0.9,0.2-1.1,0.4l0,0l0,0c0.8,2.3,1.3,4.4,2.1,6.6c0,0.2,0,0.2,0,0.4c0.4,1.1,0.9,2.1,1.1,3.1
		c0,0,0,0.2,0.2,0.4c0.4,1.1,0.9,2.1,1.3,3.1c0,0,0,0,0,0.2c0.4,1.1,0.9,1.9,1.6,3.1c0,0,0,0,0,0.2c0.4,1.1,1.1,1.9,1.6,3
		c0,0.2,0.2,0.2,0.2,0.4c0.4,0.9,1.1,1.7,1.7,2.6c0,0,0.2,0.2,0.2,0.4c1.1,1.7,2.5,3.7,3.7,5.4c0,0.2,0.2,0.4,0.2,0.4
		c0.8,0.9,1.1,1.7,1.9,2.5c0,0.2,0.2,0.2,0.4,0.4c0.8,0.8,1.3,1.6,1.9,2.5l0.2,0.2c0.8,0.8,1.3,1.6,1.9,2.3l0.2,0.2v0.2
		c0-0.2,0.2-0.2,0.4-0.4c0-0.2,0.2-0.2,0.2-0.4c1.6-1.6,3.1-3.3,4.4-5.1v-0.2c0.8-0.9,1.3-1.7,1.9-2.6c0,0,0-0.2,0.2-0.2
		c0.8-0.9,1.3-1.9,1.9-2.9l0,0c1.3-1.9,2.6-3.8,3.7-6.1l0,0c0.8-1.1,1.1-2.1,1.7-3.1v-0.4c1.7-3.1,3.1-6.5,4.4-9.7l0,0
		c0.9-2.3,1.6-4.6,2.1-7C28.5,1176.5,28.4,1176.5,28,1176.5z"/>
</g>
<g id="vennLeftBottom">
	<g>
		
			<linearGradient id="SVGID_52_" gradientUnits="userSpaceOnUse" x1="534.4324" y1="227.2083" x2="440.4325" y2="287.2084" gradientTransform="matrix(0.8707 0 0 0.8707 -440.3689 998.0228)">
			<stop  offset="0" style="stop-color:#FFFFFF"/>
			<stop  offset="1" style="stop-color:#C57AB3"/>
		</linearGradient>
		<path fill="url(#SVGID_52_)" d="M17.1,1202.6c1.3-1.9,2.6-3.8,3.7-5.8C19.6,1198.5,18.2,1200.6,17.1,1202.6z"/>
		
			<linearGradient id="SVGID_53_" gradientUnits="userSpaceOnUse" x1="532.3997" y1="224.024" x2="438.3997" y2="284.024" gradientTransform="matrix(0.8707 0 0 0.8707 -440.3689 998.0228)">
			<stop  offset="0" style="stop-color:#FFFFFF"/>
			<stop  offset="1" style="stop-color:#C57AB3"/>
		</linearGradient>
		<path fill="url(#SVGID_53_)" d="M22.5,1193.5C22.5,1193.5,22.5,1193.6,22.5,1193.5C22.3,1193.5,22.3,1193.5,22.5,1193.5
			L22.5,1193.5z"/>
		
			<linearGradient id="SVGID_54_" gradientUnits="userSpaceOnUse" x1="529.5552" y1="227.9398" x2="529.5552" y2="227.9398" gradientTransform="matrix(0.8707 0 0 0.8707 -440.3689 998.0228)">
			<stop  offset="0" style="stop-color:#FFFFFF"/>
			<stop  offset="1" style="stop-color:#C57AB3"/>
		</linearGradient>
		<path fill="url(#SVGID_54_)" d="M20.7,1196.5L20.7,1196.5L20.7,1196.5z"/>
		
			<linearGradient id="SVGID_55_" gradientUnits="userSpaceOnUse" x1="527.0513" y1="215.6445" x2="433.0512" y2="275.6447" gradientTransform="matrix(0.8707 0 0 0.8707 -440.3689 998.0228)">
			<stop  offset="0" style="stop-color:#FFFFFF"/>
			<stop  offset="1" style="stop-color:#C57AB3"/>
		</linearGradient>
		<path fill="url(#SVGID_55_)" d="M26.5,1183.4L26.5,1183.4L26.5,1183.4c0.9-2.1,1.6-4.4,2.1-6.8C28,1179.1,27.5,1181.4,26.5,1183.4
			z"/>
		
			<linearGradient id="SVGID_56_" gradientUnits="userSpaceOnUse" x1="529.9732" y1="220.2222" x2="435.9732" y2="280.2222" gradientTransform="matrix(0.8707 0 0 0.8707 -440.3689 998.0228)">
			<stop  offset="0" style="stop-color:#FFFFFF"/>
			<stop  offset="1" style="stop-color:#C57AB3"/>
		</linearGradient>
		<path fill="url(#SVGID_56_)" d="M25.1,1187.5c0-0.4,0.2-0.4,0.4-0.9C25.3,1186.9,25.1,1187.1,25.1,1187.5z"/>
		
			<linearGradient id="SVGID_57_" gradientUnits="userSpaceOnUse" x1="520.7047" y1="205.7015" x2="426.7047" y2="265.7015" gradientTransform="matrix(0.8707 0 0 0.8707 -440.3689 998.0228)">
			<stop  offset="0" style="stop-color:#FFFFFF"/>
			<stop  offset="1" style="stop-color:#C57AB3"/>
		</linearGradient>
		<path fill="url(#SVGID_57_)" d="M16.8,1174.8h-0.2C16.5,1174.8,16.5,1174.8,16.8,1174.8z"/>
		
			<linearGradient id="SVGID_58_" gradientUnits="userSpaceOnUse" x1="536.1027" y1="229.8249" x2="442.1027" y2="289.825" gradientTransform="matrix(0.8707 0 0 0.8707 -440.3689 998.0228)">
			<stop  offset="0" style="stop-color:#FFFFFF"/>
			<stop  offset="1" style="stop-color:#C57AB3"/>
		</linearGradient>
		<path fill="url(#SVGID_58_)" d="M14.6,1205.8c0,0,0-0.2,0.2-0.2C14.8,1205.4,14.8,1205.5,14.6,1205.8z"/>
		
			<linearGradient id="SVGID_59_" gradientUnits="userSpaceOnUse" x1="522.0167" y1="207.7572" x2="428.0168" y2="267.7571" gradientTransform="matrix(0.8707 0 0 0.8707 -440.3689 998.0228)">
			<stop  offset="0" style="stop-color:#FFFFFF"/>
			<stop  offset="1" style="stop-color:#C57AB3"/>
		</linearGradient>
		<path fill="url(#SVGID_59_)" d="M20.7,1175.2c0.9,0,1.7,0.2,2.9,0.4c-2.3-0.4-4.6-0.8-7-0.9c1.1,0,2.1,0.2,3.1,0.4
			C20.2,1175.2,20.5,1175.2,20.7,1175.2z"/>
		
			<linearGradient id="SVGID_60_" gradientUnits="userSpaceOnUse" x1="536.8" y1="230.9177" x2="442.8001" y2="290.9177" gradientTransform="matrix(0.8707 0 0 0.8707 -440.3689 998.0228)">
			<stop  offset="0" style="stop-color:#FFFFFF"/>
			<stop  offset="1" style="stop-color:#C57AB3"/>
		</linearGradient>
		<path fill="url(#SVGID_60_)" d="M12.8,1208.1C12.8,1208.1,12.7,1208.1,12.8,1208.1l-0.2,0.2L12.8,1208.1z"/>
		
			<linearGradient id="SVGID_61_" gradientUnits="userSpaceOnUse" x1="535.6289" y1="229.0831" x2="441.6289" y2="289.083" gradientTransform="matrix(0.8707 0 0 0.8707 -440.3689 998.0228)">
			<stop  offset="0" style="stop-color:#FFFFFF"/>
			<stop  offset="1" style="stop-color:#C57AB3"/>
		</linearGradient>
		<path fill="url(#SVGID_61_)" d="M16.9,1202.6c-0.4,0.9-1.1,1.6-1.7,2.5C15.8,1204.3,16.3,1203.5,16.9,1202.6L16.9,1202.6z"/>
		
			<linearGradient id="SVGID_62_" gradientUnits="userSpaceOnUse" x1="520.0287" y1="204.6425" x2="426.0287" y2="264.6425" gradientTransform="matrix(0.8707 0 0 0.8707 -440.3689 998.0228)">
			<stop  offset="0" style="stop-color:#FFFFFF"/>
			<stop  offset="1" style="stop-color:#C57AB3"/>
		</linearGradient>
		<path fill="url(#SVGID_62_)" d="M16.3,1174.8c-1.1-0.2-2.1-0.2-3.1-0.2C14.4,1174.6,15.4,1174.6,16.3,1174.8z"/>
		
			<linearGradient id="SVGID_63_" gradientUnits="userSpaceOnUse" x1="531.0222" y1="221.8654" x2="437.0221" y2="281.8654" gradientTransform="matrix(0.8707 0 0 0.8707 -440.3689 998.0228)">
			<stop  offset="0" style="stop-color:#FFFFFF"/>
			<stop  offset="1" style="stop-color:#C57AB3"/>
		</linearGradient>
		<path fill="url(#SVGID_63_)" d="M23.8,1190.4c0.2-0.4,0.2-0.4,0.4-0.9C24,1189.9,23.9,1190.3,23.8,1190.4z"/>
		
			<linearGradient id="SVGID_64_" gradientUnits="userSpaceOnUse" x1="516.767" y1="199.532" x2="422.7668" y2="259.532" gradientTransform="matrix(0.8707 0 0 0.8707 -440.3689 998.0228)">
			<stop  offset="0" style="stop-color:#FFFFFF"/>
			<stop  offset="1" style="stop-color:#C57AB3"/>
		</linearGradient>
		<path fill="url(#SVGID_64_)" d="M4.7,1174.6c0.4,0,0.8,0,1.1-0.2C5.2,1174.4,5,1174.6,4.7,1174.6z"/>
		
			<linearGradient id="SVGID_65_" gradientUnits="userSpaceOnUse" x1="512.136" y1="192.277" x2="418.136" y2="252.277" gradientTransform="matrix(0.8707 0 0 0.8707 -440.3689 998.0228)">
			<stop  offset="0" style="stop-color:#FFFFFF"/>
			<stop  offset="1" style="stop-color:#C57AB3"/>
		</linearGradient>
		<path fill="url(#SVGID_65_)" d="M-13.2,1177.2c0.4-0.2,0.9-0.2,1.1-0.2C-12.6,1177-13,1177.2-13.2,1177.2z"/>
		
			<linearGradient id="SVGID_66_" gradientUnits="userSpaceOnUse" x1="512.8519" y1="193.3992" x2="418.8521" y2="253.3992" gradientTransform="matrix(0.8707 0 0 0.8707 -440.3689 998.0228)">
			<stop  offset="0" style="stop-color:#FFFFFF"/>
			<stop  offset="1" style="stop-color:#C57AB3"/>
		</linearGradient>
		<path fill="url(#SVGID_66_)" d="M-10.2,1176.5c0.4,0,0.9-0.2,1.3-0.2C-9.2,1176.4-9.9,1176.5-10.2,1176.5z"/>
		
			<linearGradient id="SVGID_67_" gradientUnits="userSpaceOnUse" x1="514.8384" y1="196.5114" x2="420.8385" y2="256.5114" gradientTransform="matrix(0.8707 0 0 0.8707 -440.3689 998.0228)">
			<stop  offset="0" style="stop-color:#FFFFFF"/>
			<stop  offset="1" style="stop-color:#C57AB3"/>
		</linearGradient>
		<path fill="url(#SVGID_67_)" d="M0,1174.8c-0.9,0.2-1.7,0.2-2.5,0.4c0.2,0,0.4-0.2,0.8-0.2C-1,1175-0.3,1175,0,1174.8z"/>
		
			<linearGradient id="SVGID_68_" gradientUnits="userSpaceOnUse" x1="513.584" y1="194.5461" x2="419.584" y2="254.5461" gradientTransform="matrix(0.8707 0 0 0.8707 -440.3689 998.0228)">
			<stop  offset="0" style="stop-color:#FFFFFF"/>
			<stop  offset="1" style="stop-color:#C57AB3"/>
		</linearGradient>
		<path fill="url(#SVGID_68_)" d="M-6.8,1175.8c0.4-0.2,0.9-0.2,1.1-0.2C-6,1175.7-6.3,1175.7-6.8,1175.8z"/>
		
			<linearGradient id="SVGID_69_" gradientUnits="userSpaceOnUse" x1="538.1558" y1="233.0416" x2="444.1558" y2="293.0417" gradientTransform="matrix(0.8707 0 0 0.8707 -440.3689 998.0228)">
			<stop  offset="0" style="stop-color:#FFFFFF"/>
			<stop  offset="1" style="stop-color:#C57AB3"/>
		</linearGradient>
		<path fill="url(#SVGID_69_)" d="M7.8,1214.1c0-0.2,0.2-0.2,0.2-0.4C8.1,1213.8,7.9,1213.8,7.8,1214.1z"/>
		
			<linearGradient id="SVGID_70_" gradientUnits="userSpaceOnUse" x1="523.6278" y1="210.2808" x2="429.6277" y2="270.2808" gradientTransform="matrix(0.8707 0 0 0.8707 -440.3689 998.0228)">
			<stop  offset="0" style="stop-color:#FFFFFF"/>
			<stop  offset="1" style="stop-color:#C57AB3"/>
		</linearGradient>
		<path fill="url(#SVGID_70_)" d="M24.3,1175.7c-0.2,0-0.4,0-0.8,0C23.9,1175.7,24.3,1175.7,24.3,1175.7z"/>
		
			<linearGradient id="SVGID_71_" gradientUnits="userSpaceOnUse" x1="524.557" y1="211.7368" x2="430.5569" y2="271.7368" gradientTransform="matrix(0.8707 0 0 0.8707 -440.3689 998.0228)">
			<stop  offset="0" style="stop-color:#FFFFFF"/>
			<stop  offset="1" style="stop-color:#C57AB3"/>
		</linearGradient>
		<path fill="url(#SVGID_71_)" d="M7.6,1214.2L7.6,1214.2c-0.2-0.2-0.2-0.2-0.2-0.4c-0.8-0.8-1.3-1.6-1.9-2.3c0-0.2-0.2-0.2-0.2-0.2
			c-0.8-0.9-1.3-1.6-1.9-2.5c0-0.2-0.2-0.2-0.4-0.4c-0.8-0.8-1.3-1.6-1.9-2.5c0,0-0.2-0.2-0.2-0.4c-1.3-1.7-2.6-3.5-3.7-5.4
			c0-0.2-0.2-0.4-0.2-0.4c-0.4-0.9-1.1-1.7-1.7-2.6c0-0.2-0.2-0.4-0.2-0.4c-0.4-1.1-1.1-1.9-1.6-3c0,0,0,0,0-0.2
			c-0.4-1.1-1.1-2.1-1.6-3.1c0,0,0,0,0-0.2c-0.4-1.1-0.9-1.9-1.3-3.1c0-0.2,0-0.2-0.2-0.4c-0.4-1.1-0.9-2.1-1.1-3.1
			c0-0.2,0-0.2,0-0.4c-0.9-2.1-1.6-4.4-2.1-6.6l0,0l0,0c-30.5,8-54.9,31.8-63,62.4c6.3,1.6,13,2.1,19.7,2.1
			c25.4,0,48.4-10.6,64.4-27.9C7.6,1214.2,7.6,1214.2,7.6,1214.2z"/>
		
			<linearGradient id="SVGID_72_" gradientUnits="userSpaceOnUse" x1="525.5378" y1="213.2735" x2="431.5377" y2="273.2734" gradientTransform="matrix(0.8707 0 0 0.8707 -440.3689 998.0228)">
			<stop  offset="0" style="stop-color:#FFFFFF"/>
			<stop  offset="1" style="stop-color:#C57AB3"/>
		</linearGradient>
		<path fill="url(#SVGID_72_)" d="M28,1176.5c0.2,0,0.4,0,0.8,0.2l0,0C28.5,1176.5,28.4,1176.5,28,1176.5z"/>
		
			<linearGradient id="SVGID_73_" gradientUnits="userSpaceOnUse" x1="515.9446" y1="198.2441" x2="421.9445" y2="258.244" gradientTransform="matrix(0.8707 0 0 0.8707 -440.3689 998.0228)">
			<stop  offset="0" style="stop-color:#FFFFFF"/>
			<stop  offset="1" style="stop-color:#C57AB3"/>
		</linearGradient>
		<path fill="url(#SVGID_73_)" d="M3.8,1174.6c-0.9,0.2-1.7,0.2-2.6,0.2c0.4,0,0.9,0,1.1,0C2.6,1174.6,3.3,1174.6,3.8,1174.6z"/>
		
			<linearGradient id="SVGID_74_" gradientUnits="userSpaceOnUse" x1="524.2834" y1="211.3083" x2="430.2835" y2="271.3082" gradientTransform="matrix(0.8707 0 0 0.8707 -440.3689 998.0228)">
			<stop  offset="0" style="stop-color:#FFFFFF"/>
			<stop  offset="1" style="stop-color:#C57AB3"/>
		</linearGradient>
		<path fill="url(#SVGID_74_)" d="M24.3,1175.7c0.9,0.2,1.7,0.4,2.6,0.4C26.1,1176,25.3,1175.8,24.3,1175.7z"/>
		
			<linearGradient id="SVGID_75_" gradientUnits="userSpaceOnUse" x1="537.5948" y1="232.1628" x2="443.5946" y2="292.1628" gradientTransform="matrix(0.8707 0 0 0.8707 -440.3689 998.0228)">
			<stop  offset="0" style="stop-color:#FFFFFF"/>
			<stop  offset="1" style="stop-color:#C57AB3"/>
		</linearGradient>
		<path fill="url(#SVGID_75_)" d="M12.7,1208.6c-1.3,1.7-2.9,3.5-4.4,5.1C9.7,1212.1,11.1,1210.3,12.7,1208.6z"/>
		
			<linearGradient id="SVGID_76_" gradientUnits="userSpaceOnUse" x1="518.61" y1="202.4202" x2="424.6101" y2="262.4202" gradientTransform="matrix(0.8707 0 0 0.8707 -440.3689 998.0228)">
			<stop  offset="0" style="stop-color:#FFFFFF"/>
			<stop  offset="1" style="stop-color:#C57AB3"/>
		</linearGradient>
		<path fill="url(#SVGID_76_)" d="M9,1174.4c1.1,0,2.3,0,3.5,0.2C11.3,1174.4,10.3,1174.4,9,1174.4z"/>
	</g>
</g>
<g id="vennRightBottom">
	
		<linearGradient id="SVGID_77_" gradientUnits="userSpaceOnUse" x1="505.2439" y1="218.284" x2="592.744" y2="271.7838" gradientTransform="matrix(0.8707 0 0 0.8707 -440.3689 998.0228)">
		<stop  offset="0" style="stop-color:#FFFFFF"/>
		<stop  offset="1" style="stop-color:#A9812D"/>
	</linearGradient>
	<path fill="url(#SVGID_77_)" d="M-11.2,1184.3c0-0.2,0-0.2,0-0.4c-0.9-2.1-1.6-4.4-2.1-6.6C-12.7,1179.8-12,1181.9-11.2,1184.3z"/>
	
		<linearGradient id="SVGID_78_" gradientUnits="userSpaceOnUse" x1="500.7939" y1="225.5619" x2="588.2938" y2="279.0619" gradientTransform="matrix(0.8707 0 0 0.8707 -440.3689 998.0228)">
		<stop  offset="0" style="stop-color:#FFFFFF"/>
		<stop  offset="1" style="stop-color:#A9812D"/>
	</linearGradient>
	<path fill="url(#SVGID_78_)" d="M-7,1193.9c-0.4-1.1-1.1-2.1-1.6-3.1c0,0,0,0,0-0.2C-7.9,1191.9-7.3,1192.9-7,1193.9L-7,1193.9z"/>
	
		<linearGradient id="SVGID_79_" gradientUnits="userSpaceOnUse" x1="507.6982" y1="214.2703" x2="595.1983" y2="267.7704" gradientTransform="matrix(0.8707 0 0 0.8707 -440.3689 998.0228)">
		<stop  offset="0" style="stop-color:#FFFFFF"/>
		<stop  offset="1" style="stop-color:#A9812D"/>
	</linearGradient>
	<path fill="url(#SVGID_79_)" d="M-10.2,1176.5c-0.8,0.2-1.3,0.4-2.1,0.4C-11.5,1176.8-10.8,1176.5-10.2,1176.5z"/>
	
		<linearGradient id="SVGID_80_" gradientUnits="userSpaceOnUse" x1="502.7804" y1="222.3134" x2="590.2803" y2="275.8134" gradientTransform="matrix(0.8707 0 0 0.8707 -440.3689 998.0228)">
		<stop  offset="0" style="stop-color:#FFFFFF"/>
		<stop  offset="1" style="stop-color:#A9812D"/>
	</linearGradient>
	<path fill="url(#SVGID_80_)" d="M-10,1187.3c0-0.2-0.2-0.4-0.2-0.8c0.2,0.4,0.2,0.8,0.4,1.1C-9.9,1187.6-9.9,1187.5-10,1187.3z"/>
	
		<linearGradient id="SVGID_81_" gradientUnits="userSpaceOnUse" x1="519.1812" y1="195.4891" x2="606.6813" y2="248.9892" gradientTransform="matrix(0.8707 0 0 0.8707 -440.3689 998.0228)">
		<stop  offset="0" style="stop-color:#FFFFFF"/>
		<stop  offset="1" style="stop-color:#A9812D"/>
	</linearGradient>
	<path fill="url(#SVGID_81_)" d="M23.6,1175.7c0.2,0,0.4,0,0.8,0C24.3,1175.7,23.9,1175.7,23.6,1175.7z"/>
	
		<linearGradient id="SVGID_82_" gradientUnits="userSpaceOnUse" x1="516.3548" y1="200.1118" x2="603.8548" y2="253.6118" gradientTransform="matrix(0.8707 0 0 0.8707 -440.3689 998.0228)">
		<stop  offset="0" style="stop-color:#FFFFFF"/>
		<stop  offset="1" style="stop-color:#A9812D"/>
	</linearGradient>
	<path fill="url(#SVGID_82_)" d="M12.3,1174.4c0.2,0,0.8,0,0.9,0C13.1,1174.6,12.7,1174.4,12.3,1174.4z"/>
	
		<linearGradient id="SVGID_83_" gradientUnits="userSpaceOnUse" x1="519.9107" y1="194.2961" x2="607.4107" y2="247.7961" gradientTransform="matrix(0.8707 0 0 0.8707 -440.3689 998.0228)">
		<stop  offset="0" style="stop-color:#FFFFFF"/>
		<stop  offset="1" style="stop-color:#A9812D"/>
	</linearGradient>
	<path fill="url(#SVGID_83_)" d="M27,1176.4c0.4,0.2,0.8,0.2,1.1,0.2C27.6,1176.4,27.5,1176.4,27,1176.4z"/>
	
		<linearGradient id="SVGID_84_" gradientUnits="userSpaceOnUse" x1="509.0561" y1="212.0495" x2="596.5562" y2="265.5495" gradientTransform="matrix(0.8707 0 0 0.8707 -440.3689 998.0228)">
		<stop  offset="0" style="stop-color:#FFFFFF"/>
		<stop  offset="1" style="stop-color:#A9812D"/>
	</linearGradient>
	<path fill="url(#SVGID_84_)" d="M-8.9,1176.2c0.8-0.2,1.3-0.2,1.9-0.4C-7.3,1175.8-8.1,1176.2-8.9,1176.2z"/>
	
		<linearGradient id="SVGID_85_" gradientUnits="userSpaceOnUse" x1="517.3098" y1="198.5503" x2="604.8098" y2="252.0503" gradientTransform="matrix(0.8707 0 0 0.8707 -440.3689 998.0228)">
		<stop  offset="0" style="stop-color:#FFFFFF"/>
		<stop  offset="1" style="stop-color:#A9812D"/>
	</linearGradient>
	<path fill="url(#SVGID_85_)" d="M16.3,1174.8h0.2C16.5,1174.8,16.5,1174.8,16.3,1174.8z"/>
	
		<linearGradient id="SVGID_86_" gradientUnits="userSpaceOnUse" x1="518.2645" y1="196.9884" x2="605.7648" y2="250.4884" gradientTransform="matrix(0.8707 0 0 0.8707 -440.3689 998.0228)">
		<stop  offset="0" style="stop-color:#FFFFFF"/>
		<stop  offset="1" style="stop-color:#A9812D"/>
	</linearGradient>
	<path fill="url(#SVGID_86_)" d="M20.7,1175.2c0.4,0,0.9,0,1.1,0.2c-1.1-0.2-2.5-0.4-3.5-0.4c0.4,0.2,0.9,0.2,1.3,0.2
		C20.1,1175.2,20.5,1175.2,20.7,1175.2z"/>
	
		<linearGradient id="SVGID_87_" gradientUnits="userSpaceOnUse" x1="497.2158" y1="231.4142" x2="584.7158" y2="284.9142" gradientTransform="matrix(0.8707 0 0 0.8707 -440.3689 998.0228)">
		<stop  offset="0" style="stop-color:#FFFFFF"/>
		<stop  offset="1" style="stop-color:#A9812D"/>
	</linearGradient>
	<path fill="url(#SVGID_87_)" d="M0.4,1205.8c-1.3-1.7-2.6-3.5-3.7-5.4c1.1,1.9,2.6,3.8,3.8,5.8C0.6,1206,0.6,1205.9,0.4,1205.8z"/>
	
		<linearGradient id="SVGID_88_" gradientUnits="userSpaceOnUse" x1="495.6854" y1="233.9173" x2="583.1854" y2="287.4171" gradientTransform="matrix(0.8707 0 0 0.8707 -440.3689 998.0228)">
		<stop  offset="0" style="stop-color:#FFFFFF"/>
		<stop  offset="1" style="stop-color:#A9812D"/>
	</linearGradient>
	<path fill="url(#SVGID_88_)" d="M2.6,1208.6c0-0.2-0.2-0.2-0.4-0.4c0.2,0.2,0.4,0.4,0.8,0.9C3,1208.8,2.8,1208.8,2.6,1208.6z"/>
	
		<linearGradient id="SVGID_89_" gradientUnits="userSpaceOnUse" x1="514.7415" y1="202.7504" x2="602.2415" y2="256.2504" gradientTransform="matrix(0.8707 0 0 0.8707 -440.3689 998.0228)">
		<stop  offset="0" style="stop-color:#FFFFFF"/>
		<stop  offset="1" style="stop-color:#A9812D"/>
	</linearGradient>
	<path fill="url(#SVGID_89_)" d="M5.8,1174.4c1.1,0,2.3,0,3.5,0C7.8,1174.4,6.7,1174.4,5.8,1174.4z"/>
	
		<linearGradient id="SVGID_90_" gradientUnits="userSpaceOnUse" x1="506.7311" y1="215.8519" x2="594.2311" y2="269.3519" gradientTransform="matrix(0.8707 0 0 0.8707 -440.3689 998.0228)">
		<stop  offset="0" style="stop-color:#FFFFFF"/>
		<stop  offset="1" style="stop-color:#A9812D"/>
	</linearGradient>
	<path fill="url(#SVGID_90_)" d="M-13.4,1177.3C-13.4,1177.3-13.2,1177.3-13.4,1177.3C-13.2,1177.3-13.4,1177.3-13.4,1177.3
		L-13.4,1177.3L-13.4,1177.3z"/>
	
		<linearGradient id="SVGID_91_" gradientUnits="userSpaceOnUse" x1="507.8781" y1="213.976" x2="595.3779" y2="267.476" gradientTransform="matrix(0.8707 0 0 0.8707 -440.3689 998.0228)">
		<stop  offset="0" style="stop-color:#FFFFFF"/>
		<stop  offset="1" style="stop-color:#A9812D"/>
	</linearGradient>
	<path fill="url(#SVGID_91_)" d="M28.6,1176.5c-0.8,2.5-1.3,4.7-2.1,7l0,0c-1.1,3.5-2.6,6.8-4.4,9.7v0.2c-0.4,1.1-1.1,2.1-1.7,3.1
		l0,0c-1.1,1.9-2.5,4-3.7,6.1l0,0c-0.8,0.9-1.3,1.7-1.9,2.9c0,0.2,0,0.2-0.2,0.2c-0.8,0.9-1.3,1.7-1.9,2.6v0.2
		c-1.3,1.7-2.9,3.5-4.4,5.1c0,0.2-0.2,0.2-0.2,0.4c0,0.2-0.2,0.2-0.4,0.4v-0.2l-0.2-0.2c-0.8-0.8-1.3-1.6-1.9-2.3
		c0-0.2-0.2-0.2-0.2-0.2s0,0,0-0.2c16.3,18.9,40.3,30.8,67.1,30.8c7.9,0,15.3-1.1,22.5-2.9C85.5,1207.9,60.4,1183.8,28.6,1176.5z"/>
	
		<linearGradient id="SVGID_92_" gradientUnits="userSpaceOnUse" x1="511.9687" y1="207.2857" x2="599.4687" y2="260.7857" gradientTransform="matrix(0.8707 0 0 0.8707 -440.3689 998.0228)">
		<stop  offset="0" style="stop-color:#FFFFFF"/>
		<stop  offset="1" style="stop-color:#A9812D"/>
	</linearGradient>
	<path fill="url(#SVGID_92_)" d="M-1.9,1175.2c0.2,0,0.2,0,0.4-0.2c0.9-0.2,1.7-0.2,2.6-0.2C0,1174.8-1,1175-1.9,1175.2z"/>
	
		<linearGradient id="SVGID_93_" gradientUnits="userSpaceOnUse" x1="510.5851" y1="209.5487" x2="598.0851" y2="263.0488" gradientTransform="matrix(0.8707 0 0 0.8707 -440.3689 998.0228)">
		<stop  offset="0" style="stop-color:#FFFFFF"/>
		<stop  offset="1" style="stop-color:#A9812D"/>
	</linearGradient>
	<path fill="url(#SVGID_93_)" d="M-5.4,1175.7c1.1-0.2,2.1-0.4,3.1-0.4C-3.5,1175.3-4.5,1175.5-5.4,1175.7z"/>
	
		<linearGradient id="SVGID_94_" gradientUnits="userSpaceOnUse" x1="498.2254" y1="229.7632" x2="585.7253" y2="283.2632" gradientTransform="matrix(0.8707 0 0 0.8707 -440.3689 998.0228)">
		<stop  offset="0" style="stop-color:#FFFFFF"/>
		<stop  offset="1" style="stop-color:#A9812D"/>
	</linearGradient>
	<path fill="url(#SVGID_94_)" d="M-3.5,1199.8c0,0,0.2,0.2,0.2,0.4C-3.4,1200.2-3.4,1199.8-3.5,1199.8z"/>
	
		<linearGradient id="SVGID_95_" gradientUnits="userSpaceOnUse" x1="513.2844" y1="205.1335" x2="600.7844" y2="258.6336" gradientTransform="matrix(0.8707 0 0 0.8707 -440.3689 998.0228)">
		<stop  offset="0" style="stop-color:#FFFFFF"/>
		<stop  offset="1" style="stop-color:#A9812D"/>
	</linearGradient>
	<path fill="url(#SVGID_95_)" d="M1.6,1174.8c0.2,0,0.4,0,0.8-0.2c0.9-0.2,1.6-0.2,2.5-0.2C3.4,1174.6,2.6,1174.6,1.6,1174.8z"/>
	
		<linearGradient id="SVGID_96_" gradientUnits="userSpaceOnUse" x1="499.0084" y1="228.4827" x2="586.5082" y2="281.9825" gradientTransform="matrix(0.8707 0 0 0.8707 -440.3689 998.0228)">
		<stop  offset="0" style="stop-color:#FFFFFF"/>
		<stop  offset="1" style="stop-color:#A9812D"/>
	</linearGradient>
	<path fill="url(#SVGID_96_)" d="M-5.1,1197.2c0-0.2-0.2-0.2-0.2-0.4c0.4,0.4,0.8,1.1,0.9,1.6C-4.5,1198-4.7,1197.5-5.1,1197.2z"/>
</g>
<text id="vennLeftTitle" transform="matrix(1 0 0 1 -84.2065 1162.5625)" font-family="'MyriadPro-Regular'" font-size="20.8957">Web</text>
<text id="vennRightTitle" transform="matrix(1 0 0 1 57.2749 1162.5625)" font-family="'MyriadPro-Regular'" font-size="20.8957">Apps</text>
<text id="vennBottomTitle" transform="matrix(1 0 0 1 -17.2524 1287.5029)" font-family="'MyriadPro-Regular'" font-size="20.8957">Games</text>
<text transform="matrix(1 0 0 1 167.9155 1013.8057)" font-family="'MyriadPro-Regular'" font-size="15.1043">User Experience</text>
<text transform="matrix(1 0 0 1 -299.7041 1013.8057)" font-family="'MyriadPro-Regular'" font-size="15.1043">Java, iOS, Node</text>
<text transform="matrix(1 0 0 1 -79.333 1060.1709)" font-family="'MyriadPro-Regular'" font-size="15.1043">Angular JS</text>
<text transform="matrix(1 0 0 1 -191.1406 1078.542)" font-family="'MyriadPro-Regular'" font-size="15.1043">Materialize</text>
<text transform="matrix(1 0 0 1 -209.6172 1105.582)" font-family="'MyriadPro-Regular'" font-size="15.1043">Bootstrap</text>
<text transform="matrix(1 0 0 1 -306.9014 1137.918)" font-family="'MyriadPro-Regular'" font-size="15.1043">2 Years work experience</text>
<text transform="matrix(1 0 0 1 -268.8457 1171.2002)" font-family="'MyriadPro-Regular'" font-size="15.1043">Spring/Hibernate</text>
<text transform="matrix(1 0 0 1 -219.7969 1202.5889)" font-family="'MyriadPro-Regular'" font-size="15.1043">Keystone JS</text>
<text transform="matrix(1 0 0 1 15.2466 1060.1709)" font-family="'MyriadPro-Regular'" font-size="15.1043">Maven/Gradle</text>
<text transform="matrix(1 0 0 1 146.5342 1095.5615)" font-family="'MyriadPro-Regular'" font-size="15.1043">JavaFX/Swing</text>
<text transform="matrix(1 0 0 1 160.6177 1128.9033)" font-family="'MyriadPro-Regular'" font-size="15.1043">iOS Development</text>
<text transform="matrix(1 0 0 1 165.3623 1164.9766)" font-family="'MyriadPro-Regular'" font-size="15.1043">Core Data</text>
<text transform="matrix(1 0 0 1 124.8628 1245.332)" font-family="'MyriadPro-Regular'" font-size="15.1043">XML</text>
<text transform="matrix(1 0 0 1 157.4048 1196.5049)" font-family="'MyriadPro-Regular'" font-size="15.1043">Electron</text>
<text transform="matrix(1 0 0 1 101.0801 1261.0576)" font-family="'MyriadPro-Regular'" font-size="15.1043">Illustrator/Photoshop</text>
<text transform="matrix(1 0 0 1 -301.0132 1383.0557)" font-family="'MyriadPro-Regular'" font-size="15.1043">Strong OOP Skills</text>
<text transform="matrix(1 0 0 1 -180.2949 1245.332)" font-family="'MyriadPro-Regular'" font-size="15.1043">Cocos2D-JS</text>
<text transform="matrix(1 0 0 1 -190.624 1261.0586)" font-family="'MyriadPro-Regular'" font-size="15.1043">Particle Systems</text>
<text transform="matrix(1 0 0 1 -118.334 1300.4189)" font-family="'MyriadPro-Regular'" font-size="15.1043">Box 2D</text>
<text transform="matrix(1 0 0 1 -92.8525 1351.9277)" font-family="'MyriadPro-Regular'" font-size="15.1043">Cocos2D</text>
<text transform="matrix(1 0 0 1 57.4087 1351.9277)" font-family="'MyriadPro-Regular'" font-size="15.1043">Published 4 apps</text>
<text transform="matrix(1 0 0 1 95.169 1300.4199)" font-family="'MyriadPro-Regular'" font-size="15.1043">LibGDX</text>
<text transform="matrix(1 0 0 1 167.9155 1383.0557)" font-family="'MyriadPro-Regular'" font-size="15.1043">Full Stack Developer</text>
</svg>
