<?xml version="1.0" encoding="utf-8"?>
<!-- Generator: Adobe Illustrator 18.0.0, SVG Export Plug-In . SVG Version: 6.00 Build 0)  -->
<!DOCTYPE svg PUBLIC "-//W3C//DTD SVG 1.1//EN" "http://www.w3.org/Graphics/SVG/1.1/DTD/svg11.dtd">
<svg version="1.1" id="Layer_1" xmlns="http://www.w3.org/2000/svg" xmlns:xlink="http://www.w3.org/1999/xlink" x="0px" y="0px"
	 viewBox="-301 1201.9 632.4 388.8" enable-background="new -301 1201.9 632.4 388.8" xml:space="preserve">
<g id="background">
</g>
<g id="vennLeft">
	
		<linearGradient id="SVGID_1_" gradientUnits="userSpaceOnUse" x1="486.128" y1="528.1449" x2="389.6283" y2="704.3136" gradientTransform="matrix(0.8707 0 0 -0.8707 -440.3689 1890.7672)">
		<stop  offset="0" style="stop-color:#FFFFFF"/>
		<stop  offset="1" style="stop-color:#00AEEF"/>
	</linearGradient>
	<path fill="url(#SVGID_1_)" d="M-13.5,1379.6c-2.1-7.6-3.3-15.7-3.3-24.1c0-23.7,9.4-45.3,24.4-61.1c-16.1-17-39-27.4-64.2-27.4
		c-48.9,0-88.7,39.7-88.7,88.6c0,42.2,29.3,77.3,68.8,86.3C-68.1,1411.8-44.1,1387.6-13.5,1379.6z"/>
</g>
<g id="vennRight">
	
		<linearGradient id="appsPath_1_" gradientUnits="userSpaceOnUse" x1="526.8034" y1="556.6473" x2="656.0363" y2="675.4021" gradientTransform="matrix(0.8707 0 0 -0.8707 -440.3689 1890.7672)">
		<stop  offset="0" style="stop-color:#FFFFFF"/>
		<stop  offset="1" style="stop-color:#8DC63F"/>
	</linearGradient>
	<path id="appsPath" fill="url(#appsPath_1_)" d="M72.4,1267.6c-25.2,0-48,10.6-64.2,27.8c14.9,15.9,24.4,37.3,24.4,60.9
		c0,8-1.1,15.9-3.1,23.1c31.7,7.4,56.8,31.4,65.6,62.5c38.1-9.8,66.2-44.6,66.2-85.7C160.8,1307.1,121.3,1267.6,72.4,1267.6z"/>
</g>
<g id="vennBottom">
	<g>
		
			<linearGradient id="SVGID_2_" gradientUnits="userSpaceOnUse" x1="596.7875" y1="587.4362" x2="603.7875" y2="399.9361" gradientTransform="matrix(0.8707 0 0 -0.8707 -440.3689 1890.7672)">
			<stop  offset="0" style="stop-color:#FFFFFF"/>
			<stop  offset="1" style="stop-color:#F7941E"/>
		</linearGradient>
		<path fill="url(#SVGID_2_)" d="M80.1,1413.3c0.4,0.4,0.8,0.9,0.9,1.3C80.7,1414.1,80.5,1413.8,80.1,1413.3z"/>
		
			<linearGradient id="SVGID_3_" gradientUnits="userSpaceOnUse" x1="591.3271" y1="587.2323" x2="598.327" y2="399.7322" gradientTransform="matrix(0.8707 0 0 -0.8707 -440.3689 1890.7672)">
			<stop  offset="0" style="stop-color:#FFFFFF"/>
			<stop  offset="1" style="stop-color:#F7941E"/>
		</linearGradient>
		<path fill="url(#SVGID_3_)" d="M75,1406.9c0.4,0.4,0.9,0.9,1.1,1.3C75.7,1407.8,75.3,1407.4,75,1406.9z"/>
		
			<linearGradient id="SVGID_4_" gradientUnits="userSpaceOnUse" x1="594.1891" y1="587.3392" x2="601.1891" y2="399.8389" gradientTransform="matrix(0.8707 0 0 -0.8707 -440.3689 1890.7672)">
			<stop  offset="0" style="stop-color:#FFFFFF"/>
			<stop  offset="1" style="stop-color:#F7941E"/>
		</linearGradient>
		<path fill="url(#SVGID_4_)" d="M77.3,1409.3c0.8,0.8,1.1,1.3,1.7,2.1C78.3,1411.1,77.7,1410.3,77.3,1409.3z"/>
		
			<linearGradient id="SVGID_5_" gradientUnits="userSpaceOnUse" x1="586.3672" y1="587.0472" x2="593.3672" y2="399.5472" gradientTransform="matrix(0.8707 0 0 -0.8707 -440.3689 1890.7672)">
			<stop  offset="0" style="stop-color:#FFFFFF"/>
			<stop  offset="1" style="stop-color:#F7941E"/>
		</linearGradient>
		<path fill="url(#SVGID_5_)" d="M71.7,1403.6c-0.4-0.4-0.9-1.1-1.3-1.3C70.7,1402.6,71.3,1403.1,71.7,1403.6z"/>
		
			<linearGradient id="SVGID_6_" gradientUnits="userSpaceOnUse" x1="588.792" y1="587.1377" x2="595.7919" y2="399.6377" gradientTransform="matrix(0.8707 0 0 -0.8707 -440.3689 1890.7672)">
			<stop  offset="0" style="stop-color:#FFFFFF"/>
			<stop  offset="1" style="stop-color:#F7941E"/>
		</linearGradient>
		<path fill="url(#SVGID_6_)" d="M72.6,1404.6c0.4,0.4,0.9,0.9,1.3,1.3C73.5,1405.3,73.1,1405.1,72.6,1404.6z"/>
		
			<linearGradient id="SVGID_7_" gradientUnits="userSpaceOnUse" x1="576.8208" y1="586.6906" x2="583.8204" y2="399.1907" gradientTransform="matrix(0.8707 0 0 -0.8707 -440.3689 1890.7672)">
			<stop  offset="0" style="stop-color:#FFFFFF"/>
			<stop  offset="1" style="stop-color:#F7941E"/>
		</linearGradient>
		<path fill="url(#SVGID_7_)" d="M61.6,1394.8c0.8,0.4,1.1,0.9,1.7,1.3C62.7,1395.8,62.2,1395.3,61.6,1394.8z"/>
		
			<linearGradient id="SVGID_8_" gradientUnits="userSpaceOnUse" x1="583.0358" y1="586.9228" x2="590.0358" y2="399.4229" gradientTransform="matrix(0.8707 0 0 -0.8707 -440.3689 1890.7672)">
			<stop  offset="0" style="stop-color:#FFFFFF"/>
			<stop  offset="1" style="stop-color:#F7941E"/>
		</linearGradient>
		<path fill="url(#SVGID_8_)" d="M66.4,1398.8c1.1,1.1,2.3,1.9,3.3,3C68.7,1400.6,67.6,1399.8,66.4,1398.8z"/>
		
			<linearGradient id="SVGID_9_" gradientUnits="userSpaceOnUse" x1="541.9553" y1="585.3891" x2="548.9553" y2="397.8892" gradientTransform="matrix(0.8707 0 0 -0.8707 -440.3689 1890.7672)">
			<stop  offset="0" style="stop-color:#FFFFFF"/>
			<stop  offset="1" style="stop-color:#F7941E"/>
		</linearGradient>
		<path fill="url(#SVGID_9_)" d="M28.8,1379.8c1.7,0.4,3.7,0.9,5.4,1.6C32.7,1380.8,30.7,1380.3,28.8,1379.8c0,0.2,0,0.2,0,0.2
			S28.8,1380.1,28.8,1379.8z"/>
		
			<linearGradient id="SVGID_10_" gradientUnits="userSpaceOnUse" x1="579.6024" y1="586.7945" x2="586.6024" y2="399.2945" gradientTransform="matrix(0.8707 0 0 -0.8707 -440.3689 1890.7672)">
			<stop  offset="0" style="stop-color:#FFFFFF"/>
			<stop  offset="1" style="stop-color:#F7941E"/>
		</linearGradient>
		<path fill="url(#SVGID_10_)" d="M64.1,1396.8c0.4,0.4,1.1,0.9,1.7,1.3C65.1,1397.6,64.7,1397.2,64.1,1396.8z"/>
		
			<linearGradient id="SVGID_11_" gradientUnits="userSpaceOnUse" x1="606.6224" y1="587.8033" x2="613.6223" y2="400.3033" gradientTransform="matrix(0.8707 0 0 -0.8707 -440.3689 1890.7672)">
			<stop  offset="0" style="stop-color:#FFFFFF"/>
			<stop  offset="1" style="stop-color:#F7941E"/>
		</linearGradient>
		<path fill="url(#SVGID_11_)" d="M89.3,1428.8c0.2,0.4,0.4,1.1,0.8,1.3C89.7,1429.6,89.5,1429.1,89.3,1428.8z"/>
		
			<linearGradient id="SVGID_12_" gradientUnits="userSpaceOnUse" x1="609.4448" y1="587.9084" x2="616.4448" y2="400.4088" gradientTransform="matrix(0.8707 0 0 -0.8707 -440.3689 1890.7672)">
			<stop  offset="0" style="stop-color:#FFFFFF"/>
			<stop  offset="1" style="stop-color:#F7941E"/>
		</linearGradient>
		<path fill="url(#SVGID_12_)" d="M92.2,1435.2c0.2,0.4,0.4,0.9,0.4,1.1C92.4,1436.1,92.2,1435.6,92.2,1435.2z"/>
		
			<linearGradient id="SVGID_13_" gradientUnits="userSpaceOnUse" x1="608.21" y1="587.8625" x2="615.21" y2="400.3625" gradientTransform="matrix(0.8707 0 0 -0.8707 -440.3689 1890.7672)">
			<stop  offset="0" style="stop-color:#FFFFFF"/>
			<stop  offset="1" style="stop-color:#F7941E"/>
		</linearGradient>
		<path fill="url(#SVGID_13_)" d="M90.8,1431.8c0.2,0.4,0.4,1.1,0.8,1.3C91.1,1432.9,91.1,1432.6,90.8,1431.8z"/>
		
			<linearGradient id="SVGID_14_" gradientUnits="userSpaceOnUse" x1="610.8666" y1="587.9618" x2="617.8663" y2="400.4618" gradientTransform="matrix(0.8707 0 0 -0.8707 -440.3689 1890.7672)">
			<stop  offset="0" style="stop-color:#FFFFFF"/>
			<stop  offset="1" style="stop-color:#F7941E"/>
		</linearGradient>
		<path fill="url(#SVGID_14_)" d="M93.6,1439.4c0.2,0.4,0.2,0.9,0.4,1.3C93.9,1440.3,93.7,1439.8,93.6,1439.4z"/>
		
			<linearGradient id="SVGID_15_" gradientUnits="userSpaceOnUse" x1="600.7999" y1="587.5856" x2="607.7999" y2="400.0859" gradientTransform="matrix(0.8707 0 0 -0.8707 -440.3689 1890.7672)">
			<stop  offset="0" style="stop-color:#FFFFFF"/>
			<stop  offset="1" style="stop-color:#F7941E"/>
		</linearGradient>
		<path fill="url(#SVGID_15_)" d="M83.8,1418.8c0.2,0.4,0.8,0.9,0.9,1.3C84.3,1419.6,84.2,1419.1,83.8,1418.8z"/>
		
			<linearGradient id="SVGID_16_" gradientUnits="userSpaceOnUse" x1="598.8511" y1="587.5131" x2="605.851" y2="400.0132" gradientTransform="matrix(0.8707 0 0 -0.8707 -440.3689 1890.7672)">
			<stop  offset="0" style="stop-color:#FFFFFF"/>
			<stop  offset="1" style="stop-color:#F7941E"/>
		</linearGradient>
		<path fill="url(#SVGID_16_)" d="M82,1416.1c0.4,0.4,0.8,0.9,0.9,1.3C82.7,1416.8,82.4,1416.4,82,1416.1z"/>
		
			<linearGradient id="SVGID_17_" gradientUnits="userSpaceOnUse" x1="605.0261" y1="587.7437" x2="612.0261" y2="400.2437" gradientTransform="matrix(0.8707 0 0 -0.8707 -440.3689 1890.7672)">
			<stop  offset="0" style="stop-color:#FFFFFF"/>
			<stop  offset="1" style="stop-color:#F7941E"/>
		</linearGradient>
		<path fill="url(#SVGID_17_)" d="M87.8,1425.8c0.2,0.4,0.4,0.9,0.8,1.3C88.3,1426.6,88,1426.2,87.8,1425.8z"/>
		
			<linearGradient id="SVGID_18_" gradientUnits="userSpaceOnUse" x1="602.6829" y1="587.6564" x2="609.6826" y2="400.1562" gradientTransform="matrix(0.8707 0 0 -0.8707 -440.3689 1890.7672)">
			<stop  offset="0" style="stop-color:#FFFFFF"/>
			<stop  offset="1" style="stop-color:#F7941E"/>
		</linearGradient>
		<path fill="url(#SVGID_18_)" d="M85.6,1421.8c0.2,0.4,0.4,0.8,0.8,1.1C86.1,1422.3,86,1422.1,85.6,1421.8z"/>
		
			<linearGradient id="SVGID_19_" gradientUnits="userSpaceOnUse" x1="566.0845" y1="586.2899" x2="573.0845" y2="398.7899" gradientTransform="matrix(0.8707 0 0 -0.8707 -440.3689 1890.7672)">
			<stop  offset="0" style="stop-color:#FFFFFF"/>
			<stop  offset="1" style="stop-color:#F7941E"/>
		</linearGradient>
		<path fill="url(#SVGID_19_)" d="M51.8,1388.6c0.8,0.4,1.3,0.9,2.1,1.1C52.9,1389.4,52.3,1388.8,51.8,1388.6z"/>
		
			<linearGradient id="SVGID_20_" gradientUnits="userSpaceOnUse" x1="522.1812" y1="584.6508" x2="529.1812" y2="397.1508" gradientTransform="matrix(0.8707 0 0 -0.8707 -440.3689 1890.7672)">
			<stop  offset="0" style="stop-color:#FFFFFF"/>
			<stop  offset="1" style="stop-color:#F7941E"/>
		</linearGradient>
		<path fill="url(#SVGID_20_)" d="M15.4,1408.4c0,0.2-0.2,0.2-0.2,0.4l0,0C15.3,1408.6,15.3,1408.6,15.4,1408.4z"/>
		
			<linearGradient id="SVGID_21_" gradientUnits="userSpaceOnUse" x1="520.465" y1="549.9221" x2="520.465" y2="549.9221" gradientTransform="matrix(0.8707 0 0 -0.8707 -440.3689 1890.7672)">
			<stop  offset="0" style="stop-color:#FFFFFF"/>
			<stop  offset="1" style="stop-color:#F7941E"/>
		</linearGradient>
		<path fill="url(#SVGID_21_)" d="M12.8,1411.9L12.8,1411.9L12.8,1411.9L12.8,1411.9z"/>
		
			<linearGradient id="SVGID_22_" gradientUnits="userSpaceOnUse" x1="520.3307" y1="584.582" x2="527.3307" y2="397.082" gradientTransform="matrix(0.8707 0 0 -0.8707 -440.3689 1890.7672)">
			<stop  offset="0" style="stop-color:#FFFFFF"/>
			<stop  offset="1" style="stop-color:#F7941E"/>
		</linearGradient>
		<path fill="url(#SVGID_22_)" d="M14.7,1409.1L14.7,1409.1c-0.8,0.9-1.1,1.7-1.9,2.6C13.6,1410.8,14.2,1409.8,14.7,1409.1z"/>
		
			<linearGradient id="SVGID_23_" gradientUnits="userSpaceOnUse" x1="524.39" y1="584.7331" x2="525.9995" y2="541.6179" gradientTransform="matrix(0.8707 0 0 -0.8707 -440.3689 1890.7672)">
			<stop  offset="0" style="stop-color:#FFFFFF"/>
			<stop  offset="1" style="stop-color:#F7941E"/>
		</linearGradient>
		<path fill="url(#SVGID_23_)" d="M17.2,1405.9L17.2,1405.9C17,1405.9,17,1405.9,17.2,1405.9L17.2,1405.9z"/>
		
			<linearGradient id="SVGID_24_" gradientUnits="userSpaceOnUse" x1="512.9038" y1="584.3046" x2="519.9038" y2="396.8046" gradientTransform="matrix(0.8707 0 0 -0.8707 -440.3689 1890.7672)">
			<stop  offset="0" style="stop-color:#FFFFFF"/>
			<stop  offset="1" style="stop-color:#F7941E"/>
		</linearGradient>
		<path fill="url(#SVGID_24_)" d="M94.5,1442.2c-7.2,1.9-14.7,2.9-22.5,2.9c-25.2,0-48-10.6-64.2-27.8c-16,17.1-38.9,27.8-64.2,27.8
			c-6.8,0-13.4-0.9-19.7-2.1c-1.9,7.4-3.1,15.1-3.1,23.4c0,48.9,39.7,88.6,88.6,88.6s88.6-39.7,88.6-88.6
			C97.7,1457.9,96.5,1449.8,94.5,1442.2z"/>
		
			<linearGradient id="SVGID_25_" gradientUnits="userSpaceOnUse" x1="571.1766" y1="586.4802" x2="578.1766" y2="398.98" gradientTransform="matrix(0.8707 0 0 -0.8707 -440.3689 1890.7672)">
			<stop  offset="0" style="stop-color:#FFFFFF"/>
			<stop  offset="1" style="stop-color:#F7941E"/>
		</linearGradient>
		<path fill="url(#SVGID_25_)" d="M54.1,1389.8c2.3,1.3,4.6,2.9,6.6,4.4C58.6,1392.8,56.6,1391.3,54.1,1389.8z"/>
		
			<linearGradient id="SVGID_26_" gradientUnits="userSpaceOnUse" x1="529.653" y1="563.8191" x2="529.653" y2="563.8191" gradientTransform="matrix(0.8707 0 0 -0.8707 -440.3689 1890.7672)">
			<stop  offset="0" style="stop-color:#FFFFFF"/>
			<stop  offset="1" style="stop-color:#F7941E"/>
		</linearGradient>
		<path fill="url(#SVGID_26_)" d="M20.8,1399.8L20.8,1399.8L20.8,1399.8z"/>
		
			<linearGradient id="SVGID_27_" gradientUnits="userSpaceOnUse" x1="513.1984" y1="584.3154" x2="520.1984" y2="396.8154" gradientTransform="matrix(0.8707 0 0 -0.8707 -440.3689 1890.7672)">
			<stop  offset="0" style="stop-color:#FFFFFF"/>
			<stop  offset="1" style="stop-color:#F7941E"/>
		</linearGradient>
		<path fill="url(#SVGID_27_)" d="M7.9,1417.4c0,0,0,0-0.2,0.2C7.9,1417.4,7.9,1417.4,7.9,1417.4L7.9,1417.4z"/>
		
			<linearGradient id="SVGID_28_" gradientUnits="userSpaceOnUse" x1="515.2968" y1="544.1796" x2="515.2968" y2="544.1796" gradientTransform="matrix(0.8707 0 0 -0.8707 -440.3689 1890.7672)">
			<stop  offset="0" style="stop-color:#FFFFFF"/>
			<stop  offset="1" style="stop-color:#F7941E"/>
		</linearGradient>
		<path fill="url(#SVGID_28_)" d="M8.3,1416.9L8.3,1416.9L8.3,1416.9L8.3,1416.9z"/>
		
			<linearGradient id="SVGID_29_" gradientUnits="userSpaceOnUse" x1="547.2395" y1="585.5863" x2="554.2394" y2="398.0864" gradientTransform="matrix(0.8707 0 0 -0.8707 -440.3689 1890.7672)">
			<stop  offset="0" style="stop-color:#FFFFFF"/>
			<stop  offset="1" style="stop-color:#F7941E"/>
		</linearGradient>
		<path fill="url(#SVGID_29_)" d="M34.9,1381.4c0.9,0.2,1.6,0.4,2.5,0.9C36.5,1381.8,35.8,1381.8,34.9,1381.4z"/>
		
			<linearGradient id="SVGID_30_" gradientUnits="userSpaceOnUse" x1="555.2075" y1="585.884" x2="562.2073" y2="398.3839" gradientTransform="matrix(0.8707 0 0 -0.8707 -440.3689 1890.7672)">
			<stop  offset="0" style="stop-color:#FFFFFF"/>
			<stop  offset="1" style="stop-color:#F7941E"/>
		</linearGradient>
		<path fill="url(#SVGID_30_)" d="M38.1,1382.4c3.5,1.1,7,2.6,10.2,4.4C45,1385.1,41.5,1383.6,38.1,1382.4z"/>
		
			<linearGradient id="SVGID_31_" gradientUnits="userSpaceOnUse" x1="562.7123" y1="586.1641" x2="569.7123" y2="398.664" gradientTransform="matrix(0.8707 0 0 -0.8707 -440.3689 1890.7672)">
			<stop  offset="0" style="stop-color:#FFFFFF"/>
			<stop  offset="1" style="stop-color:#F7941E"/>
		</linearGradient>
		<path fill="url(#SVGID_31_)" d="M48.8,1386.9c0.8,0.4,1.3,0.8,2.1,1.1C50.1,1387.8,49.6,1387.4,48.8,1386.9z"/>
		
			<linearGradient id="SVGID_32_" gradientUnits="userSpaceOnUse" x1="529.9072" y1="584.9392" x2="536.9072" y2="397.4392" gradientTransform="matrix(0.8707 0 0 -0.8707 -440.3689 1890.7672)">
			<stop  offset="0" style="stop-color:#FFFFFF"/>
			<stop  offset="1" style="stop-color:#F7941E"/>
		</linearGradient>
		<path fill="url(#SVGID_32_)" d="M20.8,1399.8c0.8-1.1,1.1-1.9,1.7-3.1l0,0C21.9,1398.1,21.4,1398.9,20.8,1399.8L20.8,1399.8z"/>
		
			<linearGradient id="SVGID_33_" gradientUnits="userSpaceOnUse" x1="531.756" y1="585.0084" x2="538.756" y2="397.5082" gradientTransform="matrix(0.8707 0 0 -0.8707 -440.3689 1890.7672)">
			<stop  offset="0" style="stop-color:#FFFFFF"/>
			<stop  offset="1" style="stop-color:#F7941E"/>
		</linearGradient>
		<path fill="url(#SVGID_33_)" d="M23.8,1393.8c-0.4,1.1-0.9,1.9-1.3,2.9C22.9,1395.8,23.5,1394.8,23.8,1393.8z"/>
		
			<linearGradient id="SVGID_34_" gradientUnits="userSpaceOnUse" x1="533.741" y1="585.0822" x2="540.741" y2="397.5822" gradientTransform="matrix(0.8707 0 0 -0.8707 -440.3689 1890.7672)">
			<stop  offset="0" style="stop-color:#FFFFFF"/>
			<stop  offset="1" style="stop-color:#F7941E"/>
		</linearGradient>
		<path fill="url(#SVGID_34_)" d="M25.2,1390.8c-0.2,0.8-0.8,1.3-0.9,2.1C24.4,1392.1,24.8,1391.4,25.2,1390.8z"/>
		
			<linearGradient id="SVGID_35_" gradientUnits="userSpaceOnUse" x1="535.4965" y1="585.1479" x2="542.4962" y2="397.6479" gradientTransform="matrix(0.8707 0 0 -0.8707 -440.3689 1890.7672)">
			<stop  offset="0" style="stop-color:#FFFFFF"/>
			<stop  offset="1" style="stop-color:#F7941E"/>
		</linearGradient>
		<path fill="url(#SVGID_35_)" d="M25.6,1389.8c0.4-0.9,0.9-1.9,1.1-3.1C26.2,1387.8,25.9,1388.8,25.6,1389.8z"/>
	</g>
</g>
<g id="vennLeftRight">
	<g>
		
			<linearGradient id="SVGID_36_" gradientUnits="userSpaceOnUse" x1="524.6511" y1="554.5869" x2="525.1511" y2="678.087" gradientTransform="matrix(0.8707 0 0 -0.8707 -440.3689 1890.7672)">
			<stop  offset="0" style="stop-color:#FFFFFF"/>
			<stop  offset="1" style="stop-color:#049486"/>
		</linearGradient>
		<path fill="url(#SVGID_36_)" d="M17.4,1405.1L17.4,1405.1c-0.8,0.9-1.3,1.9-1.9,2.9C15.9,1407.1,16.9,1406.1,17.4,1405.1z"/>
		
			<linearGradient id="SVGID_37_" gradientUnits="userSpaceOnUse" x1="518.4253" y1="554.6123" x2="518.9253" y2="678.1121" gradientTransform="matrix(0.8707 0 0 -0.8707 -440.3689 1890.7672)">
			<stop  offset="0" style="stop-color:#FFFFFF"/>
			<stop  offset="1" style="stop-color:#049486"/>
		</linearGradient>
		<path fill="url(#SVGID_37_)" d="M13.2,1411.2c-1.3,1.7-2.9,3.5-4.4,5.1C10.2,1414.6,11.5,1412.9,13.2,1411.2z"/>
		
			<linearGradient id="SVGID_38_" gradientUnits="userSpaceOnUse" x1="504.7784" y1="554.6674" x2="505.2784" y2="678.1674" gradientTransform="matrix(0.8707 0 0 -0.8707 -440.3689 1890.7672)">
			<stop  offset="0" style="stop-color:#FFFFFF"/>
			<stop  offset="1" style="stop-color:#049486"/>
		</linearGradient>
		<path fill="url(#SVGID_38_)" d="M1.1,1408.6c0-0.2,0-0.2-0.2-0.2c-1.3-1.7-2.6-3.5-3.7-5.4C-1.5,1404.8-0.3,1406.8,1.1,1408.6z"/>
		
			<linearGradient id="SVGID_39_" gradientUnits="userSpaceOnUse" x1="508.2433" y1="554.6535" x2="508.7433" y2="678.1535" gradientTransform="matrix(0.8707 0 0 -0.8707 -440.3689 1890.7672)">
			<stop  offset="0" style="stop-color:#FFFFFF"/>
			<stop  offset="1" style="stop-color:#049486"/>
		</linearGradient>
		<path fill="url(#SVGID_39_)" d="M3.1,1411.2L3.1,1411.2c-0.8-0.9-1.3-1.7-1.9-2.6C1.9,1409.6,2.4,1410.4,3.1,1411.2z"/>
		
			<linearGradient id="SVGID_40_" gradientUnits="userSpaceOnUse" x1="514.5397" y1="554.628" x2="515.0397" y2="678.1282" gradientTransform="matrix(0.8707 0 0 -0.8707 -440.3689 1890.7672)">
			<stop  offset="0" style="stop-color:#FFFFFF"/>
			<stop  offset="1" style="stop-color:#049486"/>
		</linearGradient>
		<path fill="url(#SVGID_40_)" d="M-12.8,1379.8c0.4-0.2,0.9-0.2,1.1-0.2c0.8-0.2,1.3-0.4,2.1-0.4c0.4-0.2,0.9-0.2,1.3-0.4
			c0.8-0.2,1.3-0.2,1.9-0.4c0.4,0,0.9-0.2,1.1-0.2c1.1-0.2,2.1-0.4,3.1-0.4c0.2,0,0.4-0.2,0.8-0.2c0.9-0.2,1.7-0.2,2.6-0.2
			c0.4,0,0.9,0,1.1,0c0.9-0.2,1.6-0.2,2.5-0.2c0.4,0,0.8,0,1.1,0c1.1,0,2.3,0,3.5,0c1.1,0,2.3,0,3.5,0c0.2,0,0.8,0,0.9,0
			c1.1,0,2.1,0,3.1,0.2H17c1.1,0.2,2.1,0.2,3.1,0.4c0.4,0,0.8,0.2,0.9,0.2c0.9,0.2,1.7,0.2,2.9,0.4c0.2,0,0.4,0.2,0.8,0.2
			c0.9,0.2,1.7,0.4,2.6,0.4c0.4,0,0.8,0.2,1.1,0.2c0.2,0.2,0.4,0.2,0.8,0.2c-0.8,2.5-1.3,4.6-2.1,7l0,0c-1.1,3.3-2.6,6.6-4.4,9.7
			c0,0,0,0,0,0.2c6.1-12,9.6-25.8,9.6-40.1c0-23.7-9.3-45.1-24.4-60.9c-15,15.9-24.5,37.3-24.5,61
			C-16.3,1364.2-15,1372.1-12.8,1379.8C-12.9,1379.9-12.8,1379.9-12.8,1379.8z"/>
		
			<linearGradient id="SVGID_41_" gradientUnits="userSpaceOnUse" x1="527.8459" y1="554.574" x2="528.3459" y2="678.074" gradientTransform="matrix(0.8707 0 0 -0.8707 -440.3689 1890.7672)">
			<stop  offset="0" style="stop-color:#FFFFFF"/>
			<stop  offset="1" style="stop-color:#049486"/>
		</linearGradient>
		<path fill="url(#SVGID_41_)" d="M21.1,1399.1c-1.1,2.1-2.5,4-3.7,6.1C18.6,1403.2,19.7,1401.3,21.1,1399.1z"/>
		
			<linearGradient id="SVGID_42_" gradientUnits="userSpaceOnUse" x1="530.811" y1="554.5621" x2="531.3109" y2="678.0621" gradientTransform="matrix(0.8707 0 0 -0.8707 -440.3689 1890.7672)">
			<stop  offset="0" style="stop-color:#FFFFFF"/>
			<stop  offset="1" style="stop-color:#049486"/>
		</linearGradient>
		<path fill="url(#SVGID_42_)" d="M22.7,1396.1c-0.4,1.1-1.1,2.1-1.7,3.1C21.7,1398.2,22.3,1397.2,22.7,1396.1z"/>
		
			<linearGradient id="SVGID_43_" gradientUnits="userSpaceOnUse" x1="522.0242" y1="554.5977" x2="522.5242" y2="678.0977" gradientTransform="matrix(0.8707 0 0 -0.8707 -440.3689 1890.7672)">
			<stop  offset="0" style="stop-color:#FFFFFF"/>
			<stop  offset="1" style="stop-color:#049486"/>
		</linearGradient>
		<path fill="url(#SVGID_43_)" d="M13.2,1411.1c0.8-0.9,1.3-1.7,1.9-2.6C14.6,1409.1,13.9,1410.1,13.2,1411.1L13.2,1411.1z"/>
		
			<linearGradient id="SVGID_44_" gradientUnits="userSpaceOnUse" x1="501.1962" y1="554.6819" x2="501.6962" y2="678.182" gradientTransform="matrix(0.8707 0 0 -0.8707 -440.3689 1890.7672)">
			<stop  offset="0" style="stop-color:#FFFFFF"/>
			<stop  offset="1" style="stop-color:#049486"/>
		</linearGradient>
		<path fill="url(#SVGID_44_)" d="M-3,1402.6c-0.4-0.9-1.1-1.7-1.7-2.6c0-0.2,0-0.2-0.2-0.4C-4.2,1400.6-3.6,1401.6-3,1402.6z"/>
		
			<linearGradient id="SVGID_45_" gradientUnits="userSpaceOnUse" x1="491.9261" y1="554.7194" x2="492.4261" y2="678.2194" gradientTransform="matrix(0.8707 0 0 -0.8707 -440.3689 1890.7672)">
			<stop  offset="0" style="stop-color:#FFFFFF"/>
			<stop  offset="1" style="stop-color:#049486"/>
		</linearGradient>
		<path fill="url(#SVGID_45_)" d="M-10.9,1386.8L-10.9,1386.8c-0.9-2.3-1.6-4.6-2.1-6.8C-12.2,1382.2-11.6,1384.4-10.9,1386.8z"/>
		
			<linearGradient id="SVGID_46_" gradientUnits="userSpaceOnUse" x1="512.798" y1="554.6349" x2="513.298" y2="678.1349" gradientTransform="matrix(0.8707 0 0 -0.8707 -440.3689 1890.7672)">
			<stop  offset="0" style="stop-color:#FFFFFF"/>
			<stop  offset="1" style="stop-color:#049486"/>
		</linearGradient>
		<path fill="url(#SVGID_46_)" d="M8,1416.8L8,1416.8c-0.2-0.2-0.2-0.2-0.2-0.4c-0.8-0.8-1.3-1.6-1.9-2.3c0-0.2-0.2-0.2-0.2-0.2
			c-0.8-0.9-1.3-1.6-1.9-2.5C4.8,1413.3,6.5,1415.1,8,1416.8c0-0.2,0.2-0.2,0.4-0.4C8.3,1416.6,8,1416.8,8,1416.8z"/>
		
			<linearGradient id="SVGID_47_" gradientUnits="userSpaceOnUse" x1="494.1312" y1="554.7105" x2="494.6312" y2="678.2105" gradientTransform="matrix(0.8707 0 0 -0.8707 -440.3689 1890.7672)">
			<stop  offset="0" style="stop-color:#FFFFFF"/>
			<stop  offset="1" style="stop-color:#049486"/>
		</linearGradient>
		<path fill="url(#SVGID_47_)" d="M-9.5,1389.8L-9.5,1389.8c-0.4-1.1-0.9-2.1-1.1-3.1C-10.2,1387.8-10.1,1388.8-9.5,1389.8z"/>
		
			<linearGradient id="SVGID_48_" gradientUnits="userSpaceOnUse" x1="499.4021" y1="554.6895" x2="499.9021" y2="678.1893" gradientTransform="matrix(0.8707 0 0 -0.8707 -440.3689 1890.7672)">
			<stop  offset="0" style="stop-color:#FFFFFF"/>
			<stop  offset="1" style="stop-color:#049486"/>
		</linearGradient>
		<path fill="url(#SVGID_48_)" d="M-4.7,1399.6c-0.4-1.1-1.1-1.9-1.6-3C-5.9,1397.6-5.3,1398.2-4.7,1399.6z"/>
		
			<linearGradient id="SVGID_49_" gradientUnits="userSpaceOnUse" x1="495.64" y1="554.7045" x2="496.14" y2="678.2045" gradientTransform="matrix(0.8707 0 0 -0.8707 -440.3689 1890.7672)">
			<stop  offset="0" style="stop-color:#FFFFFF"/>
			<stop  offset="1" style="stop-color:#049486"/>
		</linearGradient>
		<path fill="url(#SVGID_49_)" d="M-8.1,1393.2c-0.4-1.1-0.9-1.9-1.3-3.1C-8.8,1391.3-8.5,1392.3-8.1,1393.2z"/>
		
			<linearGradient id="SVGID_50_" gradientUnits="userSpaceOnUse" x1="497.3207" y1="554.6976" x2="497.8207" y2="678.1976" gradientTransform="matrix(0.8707 0 0 -0.8707 -440.3689 1890.7672)">
			<stop  offset="0" style="stop-color:#FFFFFF"/>
			<stop  offset="1" style="stop-color:#049486"/>
		</linearGradient>
		<path fill="url(#SVGID_50_)" d="M-8.1,1393.4c0.4,1.1,0.9,2.1,1.6,3.1l0,0C-6.9,1395.4-7.6,1394.4-8.1,1393.4
			C-8,1393.4-8,1393.4-8.1,1393.4z"/>
	</g>
</g>
<g id="vennCore">
	
		<radialGradient id="SVGID_51_" cx="514.63" cy="569.883" r="23.5683" gradientTransform="matrix(0.8707 0 0 -0.8707 -440.3689 1890.7672)" gradientUnits="userSpaceOnUse">
		<stop  offset="0" style="stop-color:#5C99D2"/>
		<stop  offset="1" style="stop-color:#2D2D85"/>
	</radialGradient>
	<path fill="url(#SVGID_51_)" d="M28,1379.6c-0.4-0.2-0.8-0.2-1.1-0.4c-0.9-0.2-1.7-0.4-2.6-0.4c-0.2,0-0.4,0-0.8,0
		c-0.9-0.2-1.7-0.4-2.9-0.4c-0.4-0.2-0.8-0.2-0.9-0.2c-1.1-0.2-2.1-0.2-3.1-0.4h-0.2c-1.1-0.2-2.1-0.2-3.1-0.2c-0.2,0-0.8,0-0.9,0
		c-1.1,0-2.3,0-3.5,0c-1.1,0-2.3,0-3.5,0c-0.4,0-0.8,0-1.1,0.2c-0.9,0-1.6,0.2-2.5,0.2c-0.4,0-0.9,0-1.1,0c-0.9,0.2-1.7,0.2-2.6,0.4
		c-0.2,0-0.4,0-0.8,0c-1.1,0.2-2.1,0.2-3.1,0.4c-0.4,0-0.9,0.2-1.1,0.2c-0.8,0.2-1.3,0.2-1.9,0.4c-0.4,0.2-0.9,0.2-1.3,0.2
		c-0.8,0.2-1.3,0.4-2.1,0.4c-0.4,0.2-0.9,0.2-1.1,0.4l0,0l0,0c0.8,2.3,1.3,4.4,2.1,6.6c0,0.2,0,0.2,0,0.4c0.4,1.1,0.9,2.1,1.1,3.1
		c0,0,0,0.2,0.2,0.4c0.4,1.1,0.9,2.1,1.3,3.1c0,0,0,0,0,0.2c0.4,1.1,0.9,1.9,1.6,3.1c0,0,0,0,0,0.2c0.4,1.1,1.1,1.9,1.6,3
		c0,0.2,0.2,0.2,0.2,0.4c0.4,0.9,1.1,1.7,1.7,2.6c0,0,0.2,0.2,0.2,0.4c1.1,1.7,2.5,3.7,3.7,5.4c0,0.2,0.2,0.4,0.2,0.4
		c0.8,0.9,1.1,1.7,1.9,2.5c0,0.2,0.2,0.2,0.4,0.4c0.8,0.8,1.3,1.6,1.9,2.5l0.2,0.2c0.8,0.8,1.3,1.6,1.9,2.3l0.2,0.2v0.2
		c0-0.2,0.2-0.2,0.4-0.4c0-0.2,0.2-0.2,0.2-0.4c1.6-1.6,3.1-3.3,4.4-5.1v-0.2c0.8-0.9,1.3-1.7,1.9-2.6c0,0,0-0.2,0.2-0.2
		c0.8-0.9,1.3-1.9,1.9-2.9l0,0c1.3-1.9,2.6-3.8,3.7-6.1l0,0c0.8-1.1,1.1-2.1,1.7-3.1v-0.4c1.7-3.1,3.1-6.5,4.4-9.7l0,0
		c0.9-2.3,1.6-4.6,2.1-7C28.5,1379.6,28.4,1379.6,28,1379.6z"/>
</g>
<g id="vennLeftBottom">
	<g>
		
			<linearGradient id="SVGID_52_" gradientUnits="userSpaceOnUse" x1="534.4375" y1="564.7837" x2="440.4376" y2="504.7836" gradientTransform="matrix(0.8707 0 0 -0.8707 -440.3689 1890.7672)">
			<stop  offset="0" style="stop-color:#FFFFFF"/>
			<stop  offset="1" style="stop-color:#C57AB3"/>
		</linearGradient>
		<path fill="url(#SVGID_52_)" d="M17.1,1405.8c1.3-1.9,2.6-3.8,3.7-5.8C19.6,1401.6,18.2,1403.8,17.1,1405.8z"/>
		
			<linearGradient id="SVGID_53_" gradientUnits="userSpaceOnUse" x1="532.3749" y1="568.0148" x2="438.3749" y2="508.0149" gradientTransform="matrix(0.8707 0 0 -0.8707 -440.3689 1890.7672)">
			<stop  offset="0" style="stop-color:#FFFFFF"/>
			<stop  offset="1" style="stop-color:#C57AB3"/>
		</linearGradient>
		<path fill="url(#SVGID_53_)" d="M22.5,1396.6C22.5,1396.6,22.5,1396.8,22.5,1396.6C22.3,1396.6,22.3,1396.6,22.5,1396.6
			L22.5,1396.6z"/>
		
			<linearGradient id="SVGID_54_" gradientUnits="userSpaceOnUse" x1="529.5382" y1="564.0487" x2="529.5382" y2="564.0487" gradientTransform="matrix(0.8707 0 0 -0.8707 -440.3689 1890.7672)">
			<stop  offset="0" style="stop-color:#FFFFFF"/>
			<stop  offset="1" style="stop-color:#C57AB3"/>
		</linearGradient>
		<path fill="url(#SVGID_54_)" d="M20.7,1399.6L20.7,1399.6L20.7,1399.6z"/>
		
			<linearGradient id="SVGID_55_" gradientUnits="userSpaceOnUse" x1="527.0356" y1="576.38" x2="433.0356" y2="516.3798" gradientTransform="matrix(0.8707 0 0 -0.8707 -440.3689 1890.7672)">
			<stop  offset="0" style="stop-color:#FFFFFF"/>
			<stop  offset="1" style="stop-color:#C57AB3"/>
		</linearGradient>
		<path fill="url(#SVGID_55_)" d="M26.5,1386.6L26.5,1386.6L26.5,1386.6c0.9-2.1,1.6-4.4,2.1-6.8C28,1382.2,27.5,1384.6,26.5,1386.6
			z"/>
		
			<linearGradient id="SVGID_56_" gradientUnits="userSpaceOnUse" x1="529.9597" y1="571.799" x2="435.9597" y2="511.799" gradientTransform="matrix(0.8707 0 0 -0.8707 -440.3689 1890.7672)">
			<stop  offset="0" style="stop-color:#FFFFFF"/>
			<stop  offset="1" style="stop-color:#C57AB3"/>
		</linearGradient>
		<path fill="url(#SVGID_56_)" d="M25.1,1390.6c0-0.4,0.2-0.4,0.4-0.9C25.3,1390.1,25.1,1390.2,25.1,1390.6z"/>
		
			<linearGradient id="SVGID_57_" gradientUnits="userSpaceOnUse" x1="520.7099" y1="586.2903" x2="426.7099" y2="526.2903" gradientTransform="matrix(0.8707 0 0 -0.8707 -440.3689 1890.7672)">
			<stop  offset="0" style="stop-color:#FFFFFF"/>
			<stop  offset="1" style="stop-color:#C57AB3"/>
		</linearGradient>
		<path fill="url(#SVGID_57_)" d="M16.8,1377.9h-0.2C16.5,1377.9,16.5,1377.9,16.8,1377.9z"/>
		
			<linearGradient id="SVGID_58_" gradientUnits="userSpaceOnUse" x1="536.1211" y1="562.1464" x2="442.121" y2="502.1462" gradientTransform="matrix(0.8707 0 0 -0.8707 -440.3689 1890.7672)">
			<stop  offset="0" style="stop-color:#FFFFFF"/>
			<stop  offset="1" style="stop-color:#C57AB3"/>
		</linearGradient>
		<path fill="url(#SVGID_58_)" d="M14.6,1408.9c0,0,0-0.2,0.2-0.2C14.8,1408.6,14.8,1408.6,14.6,1408.9z"/>
		
			<linearGradient id="SVGID_59_" gradientUnits="userSpaceOnUse" x1="522.0324" y1="584.2182" x2="428.0325" y2="524.2183" gradientTransform="matrix(0.8707 0 0 -0.8707 -440.3689 1890.7672)">
			<stop  offset="0" style="stop-color:#FFFFFF"/>
			<stop  offset="1" style="stop-color:#C57AB3"/>
		</linearGradient>
		<path fill="url(#SVGID_59_)" d="M20.7,1378.3c0.9,0,1.7,0.2,2.9,0.4c-2.3-0.4-4.6-0.8-7-0.9c1.1,0,2.1,0.2,3.1,0.4
			C20.2,1378.3,20.5,1378.3,20.7,1378.3z"/>
		
			<linearGradient id="SVGID_60_" gradientUnits="userSpaceOnUse" x1="536.7795" y1="561.1144" x2="442.7796" y2="501.1144" gradientTransform="matrix(0.8707 0 0 -0.8707 -440.3689 1890.7672)">
			<stop  offset="0" style="stop-color:#FFFFFF"/>
			<stop  offset="1" style="stop-color:#C57AB3"/>
		</linearGradient>
		<path fill="url(#SVGID_60_)" d="M12.8,1411.2C12.8,1411.2,12.7,1411.2,12.8,1411.2l-0.2,0.2L12.8,1411.2z"/>
		
			<linearGradient id="SVGID_61_" gradientUnits="userSpaceOnUse" x1="535.6348" y1="562.9076" x2="441.6348" y2="502.9077" gradientTransform="matrix(0.8707 0 0 -0.8707 -440.3689 1890.7672)">
			<stop  offset="0" style="stop-color:#FFFFFF"/>
			<stop  offset="1" style="stop-color:#C57AB3"/>
		</linearGradient>
		<path fill="url(#SVGID_61_)" d="M16.9,1405.8c-0.4,0.9-1.1,1.6-1.7,2.5C15.8,1407.4,16.3,1406.6,16.9,1405.8L16.9,1405.8z"/>
		
			<linearGradient id="SVGID_62_" gradientUnits="userSpaceOnUse" x1="520.0194" y1="587.372" x2="426.0194" y2="527.372" gradientTransform="matrix(0.8707 0 0 -0.8707 -440.3689 1890.7672)">
			<stop  offset="0" style="stop-color:#FFFFFF"/>
			<stop  offset="1" style="stop-color:#C57AB3"/>
		</linearGradient>
		<path fill="url(#SVGID_62_)" d="M16.3,1377.9c-1.1-0.2-2.1-0.2-3.1-0.2C14.4,1377.8,15.4,1377.8,16.3,1377.9z"/>
		
			<linearGradient id="SVGID_63_" gradientUnits="userSpaceOnUse" x1="531.0381" y1="570.1096" x2="437.038" y2="510.1096" gradientTransform="matrix(0.8707 0 0 -0.8707 -440.3689 1890.7672)">
			<stop  offset="0" style="stop-color:#FFFFFF"/>
			<stop  offset="1" style="stop-color:#C57AB3"/>
		</linearGradient>
		<path fill="url(#SVGID_63_)" d="M23.8,1393.6c0.2-0.4,0.2-0.4,0.4-0.9C24,1393.1,23.9,1393.4,23.8,1393.6z"/>
		
			<linearGradient id="SVGID_64_" gradientUnits="userSpaceOnUse" x1="516.757" y1="592.4836" x2="422.7568" y2="532.4836" gradientTransform="matrix(0.8707 0 0 -0.8707 -440.3689 1890.7672)">
			<stop  offset="0" style="stop-color:#FFFFFF"/>
			<stop  offset="1" style="stop-color:#C57AB3"/>
		</linearGradient>
		<path fill="url(#SVGID_64_)" d="M4.7,1377.8c0.4,0,0.8,0,1.1-0.2C5.2,1377.6,5,1377.8,4.7,1377.8z"/>
		
			<linearGradient id="SVGID_65_" gradientUnits="userSpaceOnUse" x1="512.1599" y1="599.6855" x2="418.1599" y2="539.6855" gradientTransform="matrix(0.8707 0 0 -0.8707 -440.3689 1890.7672)">
			<stop  offset="0" style="stop-color:#FFFFFF"/>
			<stop  offset="1" style="stop-color:#C57AB3"/>
		</linearGradient>
		<path fill="url(#SVGID_65_)" d="M-13.2,1380.3c0.4-0.2,0.9-0.2,1.1-0.2C-12.6,1380.1-13,1380.3-13.2,1380.3z"/>
		
			<linearGradient id="SVGID_66_" gradientUnits="userSpaceOnUse" x1="512.8257" y1="598.6419" x2="418.8259" y2="538.6419" gradientTransform="matrix(0.8707 0 0 -0.8707 -440.3689 1890.7672)">
			<stop  offset="0" style="stop-color:#FFFFFF"/>
			<stop  offset="1" style="stop-color:#C57AB3"/>
		</linearGradient>
		<path fill="url(#SVGID_66_)" d="M-10.2,1379.6c0.4,0,0.9-0.2,1.3-0.2C-9.2,1379.6-9.9,1379.6-10.2,1379.6z"/>
		
			<linearGradient id="SVGID_67_" gradientUnits="userSpaceOnUse" x1="514.856" y1="595.461" x2="420.8561" y2="535.461" gradientTransform="matrix(0.8707 0 0 -0.8707 -440.3689 1890.7672)">
			<stop  offset="0" style="stop-color:#FFFFFF"/>
			<stop  offset="1" style="stop-color:#C57AB3"/>
		</linearGradient>
		<path fill="url(#SVGID_67_)" d="M0,1377.9c-0.9,0.2-1.7,0.2-2.5,0.4c0.2,0,0.4-0.2,0.8-0.2C-1,1378.1-0.3,1378.1,0,1377.9z"/>
		
			<linearGradient id="SVGID_68_" gradientUnits="userSpaceOnUse" x1="513.5583" y1="597.4942" x2="419.5583" y2="537.4942" gradientTransform="matrix(0.8707 0 0 -0.8707 -440.3689 1890.7672)">
			<stop  offset="0" style="stop-color:#FFFFFF"/>
			<stop  offset="1" style="stop-color:#C57AB3"/>
		</linearGradient>
		<path fill="url(#SVGID_68_)" d="M-6.8,1378.9c0.4-0.2,0.9-0.2,1.1-0.2C-6,1378.8-6.3,1378.8-6.8,1378.9z"/>
		
			<linearGradient id="SVGID_69_" gradientUnits="userSpaceOnUse" x1="538.1601" y1="558.9517" x2="444.1601" y2="498.9516" gradientTransform="matrix(0.8707 0 0 -0.8707 -440.3689 1890.7672)">
			<stop  offset="0" style="stop-color:#FFFFFF"/>
			<stop  offset="1" style="stop-color:#C57AB3"/>
		</linearGradient>
		<path fill="url(#SVGID_69_)" d="M7.8,1417.2c0-0.2,0.2-0.2,0.2-0.4C8.1,1416.9,7.9,1416.9,7.8,1417.2z"/>
		
			<linearGradient id="SVGID_70_" gradientUnits="userSpaceOnUse" x1="523.5825" y1="581.7902" x2="429.5823" y2="521.7902" gradientTransform="matrix(0.8707 0 0 -0.8707 -440.3689 1890.7672)">
			<stop  offset="0" style="stop-color:#FFFFFF"/>
			<stop  offset="1" style="stop-color:#C57AB3"/>
		</linearGradient>
		<path fill="url(#SVGID_70_)" d="M24.3,1378.8c-0.2,0-0.4,0-0.8,0C23.9,1378.8,24.3,1378.8,24.3,1378.8z"/>
		
			<linearGradient id="SVGID_71_" gradientUnits="userSpaceOnUse" x1="524.4388" y1="580.4485" x2="430.4386" y2="520.4485" gradientTransform="matrix(0.8707 0 0 -0.8707 -440.3689 1890.7672)">
			<stop  offset="0" style="stop-color:#FFFFFF"/>
			<stop  offset="1" style="stop-color:#C57AB3"/>
		</linearGradient>
		<path fill="url(#SVGID_71_)" d="M7.6,1417.3L7.6,1417.3c-0.2-0.2-0.2-0.2-0.2-0.4c-0.8-0.8-1.3-1.6-1.9-2.3c0-0.2-0.2-0.2-0.2-0.2
			c-0.8-0.9-1.3-1.6-1.9-2.5c0-0.2-0.2-0.2-0.4-0.4c-0.8-0.8-1.3-1.6-1.9-2.5c0,0-0.2-0.2-0.2-0.4c-1.3-1.7-2.6-3.5-3.7-5.4
			c0-0.2-0.2-0.4-0.2-0.4c-0.4-0.9-1.1-1.7-1.7-2.6c0-0.2-0.2-0.4-0.2-0.4c-0.4-1.1-1.1-1.9-1.6-3c0,0,0,0,0-0.2
			c-0.4-1.1-1.1-2.1-1.6-3.1c0,0,0,0,0-0.2c-0.4-1.1-0.9-1.9-1.3-3.1c0-0.2,0-0.2-0.2-0.4c-0.4-1.1-0.9-2.1-1.1-3.1
			c0-0.2,0-0.2,0-0.4c-0.9-2.1-1.6-4.4-2.1-6.6l0,0l0,0c-30.5,8-54.9,31.8-63,62.4c6.3,1.6,13,2.1,19.7,2.1
			c25.4,0,48.4-10.6,64.4-27.9C7.6,1417.3,7.6,1417.3,7.6,1417.3z"/>
		
			<linearGradient id="SVGID_72_" gradientUnits="userSpaceOnUse" x1="525.5472" y1="578.7117" x2="431.5471" y2="518.7119" gradientTransform="matrix(0.8707 0 0 -0.8707 -440.3689 1890.7672)">
			<stop  offset="0" style="stop-color:#FFFFFF"/>
			<stop  offset="1" style="stop-color:#C57AB3"/>
		</linearGradient>
		<path fill="url(#SVGID_72_)" d="M28,1379.6c0.2,0,0.4,0,0.8,0.2l0,0C28.5,1379.6,28.4,1379.6,28,1379.6z"/>
		
			<linearGradient id="SVGID_73_" gradientUnits="userSpaceOnUse" x1="515.9466" y1="593.7527" x2="421.9465" y2="533.7529" gradientTransform="matrix(0.8707 0 0 -0.8707 -440.3689 1890.7672)">
			<stop  offset="0" style="stop-color:#FFFFFF"/>
			<stop  offset="1" style="stop-color:#C57AB3"/>
		</linearGradient>
		<path fill="url(#SVGID_73_)" d="M3.8,1377.8c-0.9,0.2-1.7,0.2-2.6,0.2c0.4,0,0.9,0,1.1,0C2.6,1377.8,3.3,1377.8,3.8,1377.8z"/>
		
			<linearGradient id="SVGID_74_" gradientUnits="userSpaceOnUse" x1="524.2516" y1="580.7414" x2="430.2518" y2="520.7415" gradientTransform="matrix(0.8707 0 0 -0.8707 -440.3689 1890.7672)">
			<stop  offset="0" style="stop-color:#FFFFFF"/>
			<stop  offset="1" style="stop-color:#C57AB3"/>
		</linearGradient>
		<path fill="url(#SVGID_74_)" d="M24.3,1378.8c0.9,0.2,1.7,0.4,2.6,0.4C26.1,1379.1,25.3,1378.9,24.3,1378.8z"/>
		
			<linearGradient id="SVGID_75_" gradientUnits="userSpaceOnUse" x1="537.592" y1="559.8414" x2="443.5919" y2="499.8415" gradientTransform="matrix(0.8707 0 0 -0.8707 -440.3689 1890.7672)">
			<stop  offset="0" style="stop-color:#FFFFFF"/>
			<stop  offset="1" style="stop-color:#C57AB3"/>
		</linearGradient>
		<path fill="url(#SVGID_75_)" d="M12.7,1411.8c-1.3,1.7-2.9,3.5-4.4,5.1C9.7,1415.2,11.1,1413.4,12.7,1411.8z"/>
		
			<linearGradient id="SVGID_76_" gradientUnits="userSpaceOnUse" x1="518.5851" y1="589.6187" x2="424.5853" y2="529.6187" gradientTransform="matrix(0.8707 0 0 -0.8707 -440.3689 1890.7672)">
			<stop  offset="0" style="stop-color:#FFFFFF"/>
			<stop  offset="1" style="stop-color:#C57AB3"/>
		</linearGradient>
		<path fill="url(#SVGID_76_)" d="M9,1377.6c1.1,0,2.3,0,3.5,0.2C11.3,1377.6,10.3,1377.6,9,1377.6z"/>
	</g>
</g>
<g id="vennRightBottom">
	
		<linearGradient id="SVGID_77_" gradientUnits="userSpaceOnUse" x1="505.2795" y1="573.7742" x2="592.7797" y2="520.2745" gradientTransform="matrix(0.8707 0 0 -0.8707 -440.3689 1890.7672)">
		<stop  offset="0" style="stop-color:#FFFFFF"/>
		<stop  offset="1" style="stop-color:#A9812D"/>
	</linearGradient>
	<path fill="url(#SVGID_77_)" d="M-11.2,1387.4c0-0.2,0-0.2,0-0.4c-0.9-2.1-1.6-4.4-2.1-6.6C-12.7,1382.9-12,1385.1-11.2,1387.4z"/>
	
		<linearGradient id="SVGID_78_" gradientUnits="userSpaceOnUse" x1="500.8176" y1="566.4769" x2="588.3176" y2="512.9769" gradientTransform="matrix(0.8707 0 0 -0.8707 -440.3689 1890.7672)">
		<stop  offset="0" style="stop-color:#FFFFFF"/>
		<stop  offset="1" style="stop-color:#A9812D"/>
	</linearGradient>
	<path fill="url(#SVGID_78_)" d="M-7,1397.1c-0.4-1.1-1.1-2.1-1.6-3.1c0,0,0,0,0-0.2C-7.9,1395.1-7.3,1396.1-7,1397.1L-7,1397.1z"/>
	
		<linearGradient id="SVGID_79_" gradientUnits="userSpaceOnUse" x1="507.6879" y1="577.7128" x2="595.188" y2="524.2127" gradientTransform="matrix(0.8707 0 0 -0.8707 -440.3689 1890.7672)">
		<stop  offset="0" style="stop-color:#FFFFFF"/>
		<stop  offset="1" style="stop-color:#A9812D"/>
	</linearGradient>
	<path fill="url(#SVGID_79_)" d="M-10.2,1379.6c-0.8,0.2-1.3,0.4-2.1,0.4C-11.5,1379.9-10.8,1379.6-10.2,1379.6z"/>
	
		<linearGradient id="SVGID_80_" gradientUnits="userSpaceOnUse" x1="502.7835" y1="569.6917" x2="590.2834" y2="516.1918" gradientTransform="matrix(0.8707 0 0 -0.8707 -440.3689 1890.7672)">
		<stop  offset="0" style="stop-color:#FFFFFF"/>
		<stop  offset="1" style="stop-color:#A9812D"/>
	</linearGradient>
	<path fill="url(#SVGID_80_)" d="M-10,1390.4c0-0.2-0.2-0.4-0.2-0.8c0.2,0.4,0.2,0.8,0.4,1.1C-9.9,1390.8-9.9,1390.6-10,1390.4z"/>
	
		<linearGradient id="SVGID_81_" gradientUnits="userSpaceOnUse" x1="519.2153" y1="596.5667" x2="606.7154" y2="543.0666" gradientTransform="matrix(0.8707 0 0 -0.8707 -440.3689 1890.7672)">
		<stop  offset="0" style="stop-color:#FFFFFF"/>
		<stop  offset="1" style="stop-color:#A9812D"/>
	</linearGradient>
	<path fill="url(#SVGID_81_)" d="M23.6,1378.8c0.2,0,0.4,0,0.8,0C24.3,1378.8,23.9,1378.8,23.6,1378.8z"/>
	
		<linearGradient id="SVGID_82_" gradientUnits="userSpaceOnUse" x1="516.3639" y1="591.903" x2="603.8639" y2="538.403" gradientTransform="matrix(0.8707 0 0 -0.8707 -440.3689 1890.7672)">
		<stop  offset="0" style="stop-color:#FFFFFF"/>
		<stop  offset="1" style="stop-color:#A9812D"/>
	</linearGradient>
	<path fill="url(#SVGID_82_)" d="M12.3,1377.6c0.2,0,0.8,0,0.9,0C13.1,1377.8,12.7,1377.6,12.3,1377.6z"/>
	
		<linearGradient id="SVGID_83_" gradientUnits="userSpaceOnUse" x1="519.9159" y1="597.7123" x2="607.4159" y2="544.2123" gradientTransform="matrix(0.8707 0 0 -0.8707 -440.3689 1890.7672)">
		<stop  offset="0" style="stop-color:#FFFFFF"/>
		<stop  offset="1" style="stop-color:#A9812D"/>
	</linearGradient>
	<path fill="url(#SVGID_83_)" d="M27,1379.6c0.4,0.2,0.8,0.2,1.1,0.2C27.6,1379.6,27.5,1379.6,27,1379.6z"/>
	
		<linearGradient id="SVGID_84_" gradientUnits="userSpaceOnUse" x1="509.0771" y1="579.9848" x2="596.5772" y2="526.4848" gradientTransform="matrix(0.8707 0 0 -0.8707 -440.3689 1890.7672)">
		<stop  offset="0" style="stop-color:#FFFFFF"/>
		<stop  offset="1" style="stop-color:#A9812D"/>
	</linearGradient>
	<path fill="url(#SVGID_84_)" d="M-8.9,1379.3c0.8-0.2,1.3-0.2,1.9-0.4C-7.3,1378.9-8.1,1379.3-8.9,1379.3z"/>
	
		<linearGradient id="SVGID_85_" gradientUnits="userSpaceOnUse" x1="517.3003" y1="593.4341" x2="604.8003" y2="539.9341" gradientTransform="matrix(0.8707 0 0 -0.8707 -440.3689 1890.7672)">
		<stop  offset="0" style="stop-color:#FFFFFF"/>
		<stop  offset="1" style="stop-color:#A9812D"/>
	</linearGradient>
	<path fill="url(#SVGID_85_)" d="M16.3,1377.9h0.2C16.5,1377.9,16.5,1377.9,16.3,1377.9z"/>
	
		<linearGradient id="SVGID_86_" gradientUnits="userSpaceOnUse" x1="518.2396" y1="594.9708" x2="605.7399" y2="541.4708" gradientTransform="matrix(0.8707 0 0 -0.8707 -440.3689 1890.7672)">
		<stop  offset="0" style="stop-color:#FFFFFF"/>
		<stop  offset="1" style="stop-color:#A9812D"/>
	</linearGradient>
	<path fill="url(#SVGID_86_)" d="M20.7,1378.3c0.4,0,0.9,0,1.1,0.2c-1.1-0.2-2.5-0.4-3.5-0.4c0.4,0.2,0.9,0.2,1.3,0.2
		C20.1,1378.3,20.5,1378.3,20.7,1378.3z"/>
	
		<linearGradient id="SVGID_87_" gradientUnits="userSpaceOnUse" x1="497.1698" y1="560.5106" x2="584.6699" y2="507.0106" gradientTransform="matrix(0.8707 0 0 -0.8707 -440.3689 1890.7672)">
		<stop  offset="0" style="stop-color:#FFFFFF"/>
		<stop  offset="1" style="stop-color:#A9812D"/>
	</linearGradient>
	<path fill="url(#SVGID_87_)" d="M0.4,1408.9c-1.3-1.7-2.6-3.5-3.7-5.4c1.1,1.9,2.6,3.8,3.8,5.8C0.6,1409.1,0.6,1409.1,0.4,1408.9z"
		/>
	
		<linearGradient id="SVGID_88_" gradientUnits="userSpaceOnUse" x1="495.6854" y1="558.0827" x2="583.1854" y2="504.5829" gradientTransform="matrix(0.8707 0 0 -0.8707 -440.3689 1890.7672)">
		<stop  offset="0" style="stop-color:#FFFFFF"/>
		<stop  offset="1" style="stop-color:#A9812D"/>
	</linearGradient>
	<path fill="url(#SVGID_88_)" d="M2.6,1411.8c0-0.2-0.2-0.2-0.4-0.4c0.2,0.2,0.4,0.4,0.8,0.9C3,1411.9,2.8,1411.9,2.6,1411.8z"/>
	
		<linearGradient id="SVGID_89_" gradientUnits="userSpaceOnUse" x1="514.7388" y1="589.2451" x2="602.2388" y2="535.7451" gradientTransform="matrix(0.8707 0 0 -0.8707 -440.3689 1890.7672)">
		<stop  offset="0" style="stop-color:#FFFFFF"/>
		<stop  offset="1" style="stop-color:#A9812D"/>
	</linearGradient>
	<path fill="url(#SVGID_89_)" d="M5.8,1377.6c1.1,0,2.3,0,3.5,0C7.8,1377.6,6.7,1377.6,5.8,1377.6z"/>
	
		<linearGradient id="SVGID_90_" gradientUnits="userSpaceOnUse" x1="506.7231" y1="576.135" x2="594.223" y2="522.635" gradientTransform="matrix(0.8707 0 0 -0.8707 -440.3689 1890.7672)">
		<stop  offset="0" style="stop-color:#FFFFFF"/>
		<stop  offset="1" style="stop-color:#A9812D"/>
	</linearGradient>
	<path fill="url(#SVGID_90_)" d="M-13.4,1380.4C-13.4,1380.4-13.2,1380.4-13.4,1380.4C-13.2,1380.4-13.4,1380.4-13.4,1380.4
		L-13.4,1380.4L-13.4,1380.4z"/>
	
		<linearGradient id="SVGID_91_" gradientUnits="userSpaceOnUse" x1="507.8242" y1="577.9359" x2="595.324" y2="524.4359" gradientTransform="matrix(0.8707 0 0 -0.8707 -440.3689 1890.7672)">
		<stop  offset="0" style="stop-color:#FFFFFF"/>
		<stop  offset="1" style="stop-color:#A9812D"/>
	</linearGradient>
	<path fill="url(#SVGID_91_)" d="M28.6,1379.6c-0.8,2.5-1.3,4.7-2.1,7l0,0c-1.1,3.5-2.6,6.8-4.4,9.7v0.2c-0.4,1.1-1.1,2.1-1.7,3.1
		l0,0c-1.1,1.9-2.5,4-3.7,6.1l0,0c-0.8,0.9-1.3,1.7-1.9,2.9c0,0.2,0,0.2-0.2,0.2c-0.8,0.9-1.3,1.7-1.9,2.6v0.2
		c-1.3,1.7-2.9,3.5-4.4,5.1c0,0.2-0.2,0.2-0.2,0.4s-0.2,0.2-0.4,0.4v-0.2l-0.2-0.2c-0.8-0.8-1.3-1.6-1.9-2.3c0-0.2-0.2-0.2-0.2-0.2
		s0,0,0-0.2c16.3,18.9,40.3,30.8,67.1,30.8c7.9,0,15.3-1.1,22.5-2.9C85.5,1411.1,60.4,1386.9,28.6,1379.6z"/>
	
		<linearGradient id="SVGID_92_" gradientUnits="userSpaceOnUse" x1="511.9477" y1="584.6799" x2="599.4476" y2="531.1799" gradientTransform="matrix(0.8707 0 0 -0.8707 -440.3689 1890.7672)">
		<stop  offset="0" style="stop-color:#FFFFFF"/>
		<stop  offset="1" style="stop-color:#A9812D"/>
	</linearGradient>
	<path fill="url(#SVGID_92_)" d="M-1.9,1378.3c0.2,0,0.2,0,0.4-0.2c0.9-0.2,1.7-0.2,2.6-0.2C0,1377.9-1,1378.1-1.9,1378.3z"/>
	
		<linearGradient id="SVGID_93_" gradientUnits="userSpaceOnUse" x1="510.614" y1="582.4985" x2="598.114" y2="528.9984" gradientTransform="matrix(0.8707 0 0 -0.8707 -440.3689 1890.7672)">
		<stop  offset="0" style="stop-color:#FFFFFF"/>
		<stop  offset="1" style="stop-color:#A9812D"/>
	</linearGradient>
	<path fill="url(#SVGID_93_)" d="M-5.4,1378.8c1.1-0.2,2.1-0.4,3.1-0.4C-3.5,1378.4-4.5,1378.6-5.4,1378.8z"/>
	
		<linearGradient id="SVGID_94_" gradientUnits="userSpaceOnUse" x1="498.2316" y1="562.247" x2="585.7315" y2="508.747" gradientTransform="matrix(0.8707 0 0 -0.8707 -440.3689 1890.7672)">
		<stop  offset="0" style="stop-color:#FFFFFF"/>
		<stop  offset="1" style="stop-color:#A9812D"/>
	</linearGradient>
	<path fill="url(#SVGID_94_)" d="M-3.5,1402.9c0,0,0.2,0.2,0.2,0.4C-3.4,1403.3-3.4,1402.9-3.5,1402.9z"/>
	
		<linearGradient id="SVGID_95_" gradientUnits="userSpaceOnUse" x1="513.2927" y1="586.8799" x2="600.7927" y2="533.3798" gradientTransform="matrix(0.8707 0 0 -0.8707 -440.3689 1890.7672)">
		<stop  offset="0" style="stop-color:#FFFFFF"/>
		<stop  offset="1" style="stop-color:#A9812D"/>
	</linearGradient>
	<path fill="url(#SVGID_95_)" d="M1.6,1377.9c0.2,0,0.4,0,0.8-0.2c0.9-0.2,1.6-0.2,2.5-0.2C3.4,1377.8,2.6,1377.8,1.6,1377.9z"/>
	
		<linearGradient id="SVGID_96_" gradientUnits="userSpaceOnUse" x1="499.0053" y1="563.5123" x2="586.5051" y2="510.0125" gradientTransform="matrix(0.8707 0 0 -0.8707 -440.3689 1890.7672)">
		<stop  offset="0" style="stop-color:#FFFFFF"/>
		<stop  offset="1" style="stop-color:#A9812D"/>
	</linearGradient>
	<path fill="url(#SVGID_96_)" d="M-5.1,1400.3c0-0.2-0.2-0.2-0.2-0.4c0.4,0.4,0.8,1.1,0.9,1.6C-4.5,1401.1-4.7,1400.6-5.1,1400.3z"
		/>
</g>
<text id="vennLeftTitle" transform="matrix(1 0 0 1 -88.7065 1365.712)" font-family="'MyriadPro-Regular'" font-size="30">Web</text>
<text id="vennRightTitle" transform="matrix(1 0 0 1 51.8 1365.712)" font-family="'MyriadPro-Regular'" font-size="30">Apps</text>
<text id="vennBottomTitle" transform="matrix(1 0 0 1 -31.2524 1490.6526)" font-family="'MyriadPro-Regular'" font-size="30">Games</text>
<text transform="matrix(1 0 0 1 167.9155 1216.9557)" font-family="'MyriadPro-Bold'" font-size="18">User Experience</text>
<text transform="matrix(1 0 0 1 -299.7041 1216.9557)" font-family="'MyriadPro-Bold'" font-size="18">Java, iOS, Node</text>
<text transform="matrix(1 0 0 1 -91.7065 1260.3208)" font-family="'MyriadPro-Bold'" font-size="18">Angular JS</text>
<text transform="matrix(1 0 0 1 -200.3789 1281.73)" font-family="'MyriadPro-Bold'" font-size="18">Materialize</text>
<text transform="matrix(1 0 0 1 -218.8555 1308.77)" font-family="'MyriadPro-Bold'" font-size="18">Bootstrap</text>
<text transform="matrix(1 0 0 1 -266.7237 1341.6931)" font-family="'MyriadPro-Bold'" font-size="18">2 yrs work exp</text>
<text transform="matrix(1 0 0 1 -298.168 1374.9749)" font-family="'MyriadPro-Bold'" font-size="18">Spring/Hibernate</text>
<text transform="matrix(1 0 0 1 -240.1192 1406.9502)" font-family="'MyriadPro-Bold'" font-size="18">Keystone JS</text>
<text transform="matrix(1 0 0 1 21.6499 1260.321)" font-family="'MyriadPro-Bold'" font-size="18">Maven/Gradle</text>
<text transform="matrix(1 0 0 1 146.5342 1298.7114)" font-family="'MyriadPro-Bold'" font-size="18">JavaFX/Swing</text>
<text transform="matrix(1 0 0 1 160.6177 1332.0532)" font-family="'MyriadPro-Bold'" font-size="18">iOS Development</text>
<text transform="matrix(1 0 0 1 165.3623 1368.1265)" font-family="'MyriadPro-Bold'" font-size="18">Core Data</text>
<text transform="matrix(1 0 0 1 124.8628 1448.4819)" font-family="'MyriadPro-Bold'" font-size="18">XML</text>
<text transform="matrix(1 0 0 1 157.4048 1399.6548)" font-family="'MyriadPro-Bold'" font-size="18">Electron</text>
<text transform="matrix(1 0 0 1 101.0801 1464.2075)" font-family="'MyriadPro-Bold'" font-size="18">Illustrator/Photoshop</text>
<text transform="matrix(1 0 0 1 -301.0132 1586.2056)" font-family="'MyriadPro-Bold'" font-size="18">Strong OOP Skills</text>
<text transform="matrix(1 0 0 1 -200.3789 1449.1068)" font-family="'MyriadPro-Bold'" font-size="18">Cocos2D-JS</text>
<text transform="matrix(1 0 0 1 -214.124 1464.2081)" font-family="'MyriadPro-Bold'" font-size="18">Particle Systems</text>
<text transform="matrix(1 0 0 1 -132.834 1503.5685)" font-family="'MyriadPro-Bold'" font-size="18">Box 2D</text>
<text transform="matrix(1 0 0 1 -108.8525 1555.0773)" font-family="'MyriadPro-Bold'" font-size="18">Cocos2D</text>
<text transform="matrix(1 0 0 1 61.6 1552.5776)" font-family="'MyriadPro-Bold'" font-size="18">Published 4 apps</text>
<text transform="matrix(1 0 0 1 95.169 1503.5698)" font-family="'MyriadPro-Bold'" font-size="18">LibGDX</text>
<text transform="matrix(1 0 0 1 167.9155 1586.2056)" font-family="'MyriadPro-Bold'" font-size="18">Full Stack Developer</text>
</svg>
